<?xml version="1.0" encoding="UTF-8" standalone="no"?>
<svg
   xmlns:dc="http://purl.org/dc/elements/1.1/"
   xmlns:cc="http://creativecommons.org/ns#"
   xmlns:rdf="http://www.w3.org/1999/02/22-rdf-syntax-ns#"
   xmlns:svg="http://www.w3.org/2000/svg"
   xmlns="http://www.w3.org/2000/svg"
   xmlns:sodipodi="http://sodipodi.sourceforge.net/DTD/sodipodi-0.dtd"
   xmlns:inkscape="http://www.inkscape.org/namespaces/inkscape"
   width="64"
   height="64"
   version="1.1"
   id="svg10"
   sodipodi:docname="mnotify-none-wireframe-light.svg"
   inkscape:version="1.0.1 (0767f8302a, 2020-10-17)"
   inkscape:export-filename="/media/Data/MX19-artwork/mx-updater-icons/fehlix/mnotify-none-wireframe2.png"
   inkscape:export-xdpi="96"
   inkscape:export-ydpi="96">
  <metadata
     id="metadata16">
    <rdf:RDF>
      <cc:Work
         rdf:about="">
        <dc:format>image/svg+xml</dc:format>
        <dc:type
           rdf:resource="http://purl.org/dc/dcmitype/StillImage" />
        <dc:title />
      </cc:Work>
    </rdf:RDF>
  </metadata>
  <defs
     id="defs14" />
  <sodipodi:namedview
     pagecolor="#ffffff"
     bordercolor="#666666"
     borderopacity="1"
     objecttolerance="10"
     gridtolerance="10"
     guidetolerance="10"
     inkscape:pageopacity="0"
     inkscape:pageshadow="2"
     inkscape:window-width="1422"
     inkscape:window-height="815"
     id="namedview12"
     showgrid="false"
     inkscape:zoom="9.609375"
     inkscape:cx="32"
     inkscape:cy="32"
     inkscape:window-x="36"
     inkscape:window-y="0"
     inkscape:window-maximized="0"
     inkscape:current-layer="svg10"
     inkscape:document-rotation="0" />
  <path
     style="fill:#e4e4e4;stroke-width:0.918367"
     d="M 30.881711,50.900574 47.412304,44.472007 V 30.696511 L 52.92251,19.676118 36.391907,12.329205 31.800077,20.59448 14.351126,27.941417 v 13.775496 z"
     id="path2"
     inkscape:connector-curvature="0" />
  <path
     style="fill:none;stroke:#000000;stroke-width:1.88333;stroke-linecap:round;stroke-linejoin:round"
     d="M 14.351126,27.023056 30.881711,20.59448 m 16.530593,8.265296 -16.530593,-8.265296 4.59183,-9.183918 17.448969,8.265556 z M 30.881711,51.818945 47.412304,45.390368 V 28.859776 l -16.530593,5.510203 m 0,17.448966 V 34.369979 L 14.351126,27.023056 v 14.693857 z"
     id="path4"
     inkscape:connector-curvature="0" />
  <path
     style="fill:#e4e4e4;stroke-width:0.918367"
     d="M 30.881711,33.451624 28.126622,21.512861 11.59585,14.165933 14.351126,27.023056 Z"
     id="path6"
     inkscape:connector-curvature="0" />
  <path
     style="fill:none;stroke:#000000;stroke-width:1.88333;stroke-linecap:round;stroke-linejoin:round"
     d="m 14.351126,27.023056 -3.67365,-13.775484 17.449146,8.265289 2.755089,12.857118 z"
     id="path8"
     inkscape:connector-curvature="0" />
  <path
     style="fill:#f9f9f9;fill-opacity:1;stroke-width:0.20339"
     d="m 22.279353,29.507162 c -3.831059,-1.709111 -7.005292,-3.147204 -7.05385,-3.195763 -0.158453,-0.158453 -3.000285,-10.99479 -2.907673,-11.087402 0.06115,-0.06115 13.737373,6.279778 14.925258,6.920036 0.01764,0.0095 0.501268,2.213896 1.07473,4.898642 0.573463,2.684746 1.09147,5.041526 1.151127,5.237288 0.05965,0.195763 0.03365,0.351149 -0.05778,0.345303 -0.09144,-0.0059 -3.300752,-1.408993 -7.13181,-3.118104 z"
     id="path10"
     inkscape:connector-curvature="0" />
  <path
     style="fill:#f9f9f9;fill-opacity:1;stroke-width:0.20339"
     d="m 22.634745,45.641594 -7.220339,-4.416195 -0.05378,-6.351535 c -0.04281,-5.056432 -0.0013,-6.329984 0.20339,-6.245844 1.577558,0.648345 14.127005,6.306368 14.242762,6.421469 0.0853,0.08481 0.131061,3.496379 0.101696,7.581254 l -0.05339,7.427047 z"
     id="path12"
     inkscape:connector-curvature="0" />
  <path
     style="fill:#f9f9f9;fill-opacity:1;stroke-width:0.20339"
     d="m 31.787288,42.720981 v -7.60983 l 7.322034,-2.441703 7.322034,-2.441704 -1.56e-4,7.254924 -1.56e-4,7.254922 -7.18719,2.796611 c -3.952955,1.538135 -7.247799,2.79661 -7.321878,2.79661 -0.07408,0 -0.134688,-3.424423 -0.134688,-7.60983 z"
     id="path14"
     inkscape:connector-curvature="0" />
  <path
     style="fill:#f9f9f9;fill-opacity:1;stroke-width:0.20339"
     d="M 31.485047,32.585048 C 31.127438,31.049864 29.34661,22.599763 29.34661,22.438081 c 0,-0.107703 0.319283,-0.329228 0.709518,-0.492279 l 0.709519,-0.296456 7.0593,3.530804 7.059301,3.530803 -6.497681,2.165861 c -3.573725,1.191224 -6.56456,2.165861 -6.646301,2.165861 -0.08174,0 -0.196589,-0.205932 -0.255219,-0.457627 z"
     id="path16"
     inkscape:connector-curvature="0" />
  <path
     style="fill:#f9f9f9;fill-opacity:1;stroke-width:0.20339"
     d="m 39.617796,23.848409 c -4.027119,-2.015376 -7.352488,-3.692271 -7.389711,-3.726432 -0.07151,-0.06563 1.226257,-2.54725 2.901983,-5.549222 l 1.003797,-1.798248 7.620708,3.622996 c 4.19139,1.992648 7.648887,3.651175 7.683327,3.685615 0.07186,0.07186 -4.061561,7.015852 -4.324603,7.265185 -0.09541,0.09043 -3.468383,-1.484518 -7.495501,-3.499894 z"
     id="path18"
     inkscape:connector-curvature="0" />
</svg>
