/* XPM */
static char * bottom_right_inactive_xpm[] = {
"16 16 4 1",
" 	c None",
".	c #29353B",
"+	c #232A2D",
"@	c #2A363C",
"        ...+++@@",
"        ...+++@@",
"        ...+++@@",
"        ...+++@@",
"        ...+++@@",
"        ...+++@@",
"        ...+++@@",
"        ...+++@@",
"++++++++++++++@@",
"++++++++++++++@@",
"++++++++++++++@@",
"..............@@",
"..............@@",
"..............@@",
"@@@@@@@@@@@@@@@@",
"@@@@@@@@@@@@@@@@"};
