/* XPM */
static char * bottom_inactive_xpm[] = {
"1 8 4 1",
" 	c None",
".	c #232A2D",
"+	c #29353B",
"@	c #2A363C",
".",
".",
".",
"+",
"+",
"+",
"@",
"@"};
