/* XPM */
static char * bottom_left_active_xpm[] = {
"16 16 3 1",
"       c None",
".	    c #29353B",
"x	    c #0f56d9",
"xx......        "};
"xx......        "};
"xx......        "};
"xx......        "};
"xx......        "};
"xx......        "};
"xx......        "};
"xx......        "};
"xx.............."};
"xx.............."};
"xx.............."};
"xx.............."};
"xx.............."};
"xx.............."};
"xxxxxxxxxxxxxxxx"};
"xxxxxxxxxxxxxxxx"};

