/* XPM */
static char * left_inactive_xpm[] = {
"5 1 3 1",
" 	c None",
".	c #29353B",
"+	c #232A2D",
"..+++"};
