<?xml version="1.0" encoding="UTF-8"?>
<svg xmlns="http://www.w3.org/2000/svg" xmlns:xlink="http://www.w3.org/1999/xlink" width="512" height="512" viewBox="0 0 512 512" version="1.1">
<defs>
<filter id="alpha" filterUnits="objectBoundingBox" x="0%" y="0%" width="100%" height="100%">
  <feColorMatrix type="matrix" in="SourceGraphic" values="0 0 0 0 1 0 0 0 0 1 0 0 0 0 1 0 0 0 1 0"/>
</filter>
<mask id="mask0">
  <g filter="url(#alpha)">
<rect x="0" y="0" width="512" height="512" style="fill:rgb(0%,0%,0%);fill-opacity:0.2;stroke:none;"/>
  </g>
</mask>
<clipPath id="clip1">
  <rect x="0" y="0" width="512" height="512"/>
</clipPath>
<g id="surface5" clip-path="url(#clip1)">
<path style=" stroke:none;fill-rule:nonzero;fill:rgb(100%,100%,100%);fill-opacity:1;" d="M 398.398438 285.882812 C 338.277344 285.882812 289.542969 334.621094 289.542969 394.738281 C 289.570312 395.792969 289.609375 396.851562 289.667969 397.90625 C 290.902344 338.722656 339.207031 291.378906 398.398438 291.328125 C 457.257812 291.363281 505.425781 338.179688 507.140625 397.011719 C 507.1875 396.253906 507.230469 395.496094 507.261719 394.738281 C 507.261719 334.621094 458.527344 285.882812 398.410156 285.882812 Z M 398.398438 285.882812 "/>
</g>
<mask id="mask1">
  <g filter="url(#alpha)">
<rect x="0" y="0" width="512" height="512" style="fill:rgb(0%,0%,0%);fill-opacity:0.2;stroke:none;"/>
  </g>
</mask>
<clipPath id="clip2">
  <rect x="0" y="0" width="512" height="512"/>
</clipPath>
<g id="surface8" clip-path="url(#clip2)">
<path style=" stroke:none;fill-rule:nonzero;fill:rgb(0%,0%,0%);fill-opacity:1;" d="M 507.136719 397.011719 C 505.898438 456.195312 457.59375 503.542969 398.398438 503.589844 C 339.539062 503.550781 291.375 456.734375 289.664062 397.90625 C 289.613281 398.664062 289.574219 399.421875 289.539062 400.179688 C 289.539062 460.296875 338.273438 509.035156 398.394531 509.035156 C 458.511719 509.035156 507.246094 460.296875 507.246094 400.179688 C 507.21875 399.125 507.179688 398.066406 507.121094 397.011719 Z M 507.136719 397.011719 "/>
</g>
<mask id="mask2">
  <g filter="url(#alpha)">
<rect x="0" y="0" width="512" height="512" style="fill:rgb(0%,0%,0%);fill-opacity:0.2;stroke:none;"/>
  </g>
</mask>
<clipPath id="clip3">
  <rect x="0" y="0" width="512" height="512"/>
</clipPath>
<g id="surface11" clip-path="url(#clip3)">
<path style=" stroke:none;fill-rule:nonzero;fill:rgb(0%,0%,0%);fill-opacity:1;" d="M 398.398438 329.425781 C 383.363281 329.425781 371.183594 341.613281 371.183594 356.640625 C 371.183594 371.667969 383.363281 383.851562 398.398438 383.851562 C 413.429688 383.851562 425.609375 371.667969 425.609375 356.640625 C 425.609375 341.613281 413.429688 329.425781 398.398438 329.425781 Z M 398.398438 400.179688 C 343.976562 400.222656 343.96875 435.011719 343.96875 435.011719 L 343.96875 449.164062 C 343.96875 449.164062 354.019531 470.933594 398.398438 470.933594 C 442.773438 470.933594 452.824219 449.164062 452.824219 449.164062 L 452.824219 435.011719 C 452.824219 435.011719 452.824219 400.160156 398.40625 400.179688 Z M 398.398438 400.179688 "/>
</g>
</defs>
<g id="surface1">
<path style="fill-rule:nonzero;fill:rgb(80.392158%,61.176473%,42.745098%);fill-opacity:1;stroke-width:0.860629;stroke-linecap:butt;stroke-linejoin:miter;stroke:rgb(80.392158%,61.176473%,42.745098%);stroke-opacity:1;stroke-miterlimit:4;" d="M 18.661387 9.016504 L 109.402107 9.016504 C 115.176432 9.016504 119.857283 13.697356 119.857283 19.471681 L 119.857283 105.743423 C 119.857283 111.517748 115.176432 116.198599 109.402107 116.198599 L 18.661387 116.198599 C 12.888095 116.198599 8.20621 111.517748 8.20621 105.743423 L 8.20621 19.471681 C 8.20621 13.697356 12.888095 9.016504 18.661387 9.016504 Z M 18.661387 9.016504 " transform="matrix(3.779527,0,0,3.779527,0.0000288355,0)"/>
<path style=" stroke:none;fill-rule:nonzero;fill:rgb(5.882353%,33.725491%,85.09804%);fill-opacity:1;" d="M 507.25 394.738281 C 507.25 454.855469 458.515625 503.589844 398.394531 503.589844 C 338.277344 503.589844 289.542969 454.855469 289.542969 394.738281 C 289.542969 334.621094 338.277344 285.882812 398.394531 285.882812 C 458.515625 285.882812 507.25 334.621094 507.25 394.738281 Z M 507.25 394.738281 "/>
<use xlink:href="#surface5" mask="url(#mask0)"/>
<use xlink:href="#surface8" mask="url(#mask1)"/>
<use xlink:href="#surface11" mask="url(#mask2)"/>
<path style=" stroke:none;fill-rule:nonzero;fill:rgb(100%,100%,100%);fill-opacity:1;" d="M 398.398438 323.984375 C 383.363281 323.984375 371.183594 336.167969 371.183594 351.195312 C 371.183594 366.222656 383.363281 378.410156 398.398438 378.410156 C 413.429688 378.410156 425.609375 366.222656 425.609375 351.195312 C 425.609375 336.167969 413.429688 323.984375 398.398438 323.984375 Z M 398.398438 394.738281 C 343.976562 394.78125 343.96875 429.570312 343.96875 429.570312 L 343.96875 443.722656 C 343.96875 443.722656 354.019531 465.492188 398.398438 465.492188 C 442.773438 465.492188 452.824219 443.722656 452.824219 443.722656 L 452.824219 429.570312 C 452.824219 429.570312 452.824219 394.714844 398.40625 394.738281 Z M 398.398438 394.738281 "/>
<path style="fill-rule:nonzero;fill:rgb(89.019608%,76.862746%,66.274512%);fill-opacity:1;stroke-width:0.528713;stroke-linecap:butt;stroke-linejoin:miter;stroke:rgb(89.019608%,76.862746%,66.274512%);stroke-opacity:1;stroke-miterlimit:4;" d="M 52.856718 8.806698 L 73.258574 8.806698 L 73.258574 19.013828 L 52.856718 19.013828 Z M 52.856718 8.806698 " transform="matrix(3.779527,0,0,3.779527,0.0000288355,0)"/>
<path style="fill-rule:nonzero;fill:rgb(89.019608%,76.862746%,66.274512%);fill-opacity:1;stroke-width:0.528713;stroke-linecap:butt;stroke-linejoin:miter;stroke:rgb(89.019608%,76.862746%,66.274512%);stroke-opacity:1;stroke-miterlimit:4;" d="M 51.652657 106.301528 L 72.054513 106.301528 L 72.054513 116.508658 L 51.652657 116.508658 Z M 51.652657 106.301528 " transform="matrix(3.779527,0,0,3.779527,0.0000288355,0)"/>
<path style="fill:none;stroke-width:5.66387;stroke-linecap:butt;stroke-linejoin:miter;stroke:rgb(12.156863%,9.019608%,5.882353%);stroke-opacity:1;stroke-miterlimit:4;" d="M 86.410227 62.319714 C 86.410227 75.473434 75.747311 86.137383 62.593592 86.137383 C 49.439872 86.137383 38.776956 75.473434 38.776956 62.319714 C 38.776956 49.165994 49.439872 38.502045 62.593592 38.502045 C 75.747311 38.502045 86.410227 49.165994 86.410227 62.319714 Z M 86.410227 62.319714 " transform="matrix(3.779527,0,0,3.779527,0.0000288355,0)"/>
<path style=" stroke:none;fill-rule:nonzero;fill:rgb(12.156863%,9.019608%,5.882353%);fill-opacity:1;" d="M 213.828125 181.699219 L 258.863281 181.699219 L 258.863281 227.828125 L 213.828125 227.828125 Z M 213.828125 181.699219 "/>
<path style="fill-rule:nonzero;fill:rgb(12.156863%,9.019608%,5.882353%);fill-opacity:1;stroke-width:0.289017;stroke-linecap:butt;stroke-linejoin:miter;stroke:rgb(12.156863%,9.019608%,5.882353%);stroke-opacity:1;stroke-miterlimit:4;" d="M 46.970772 60.256791 L 78.70217 60.256791 L 62.324874 77.46401 Z M 46.970772 60.256791 " transform="matrix(3.779527,0,0,3.779527,0.0000288355,0)"/>
</g>
</svg>
