<?xml version="1.0" encoding="UTF-8"?>
<svg xmlns="http://www.w3.org/2000/svg" xmlns:xlink="http://www.w3.org/1999/xlink" width="22" height="22" viewBox="0 0 22 22" version="1.1">
<defs>
<filter id="alpha" filterUnits="objectBoundingBox" x="0%" y="0%" width="100%" height="100%">
  <feColorMatrix type="matrix" in="SourceGraphic" values="0 0 0 0 1 0 0 0 0 1 0 0 0 0 1 0 0 0 1 0"/>
</filter>
<mask id="mask0">
  <g filter="url(#alpha)">
<rect x="0" y="0" width="22" height="22" style="fill:rgb(0%,0%,0%);fill-opacity:0.2;stroke:none;"/>
  </g>
</mask>
<clipPath id="clip1">
  <rect x="0" y="0" width="22" height="22"/>
</clipPath>
<g id="surface5" clip-path="url(#clip1)">
<path style=" stroke:none;fill-rule:nonzero;fill:rgb(100%,100%,100%);fill-opacity:1;" d="M 17.117188 12.285156 C 14.535156 12.285156 12.441406 14.378906 12.441406 16.960938 C 12.441406 17.007812 12.445312 17.050781 12.445312 17.097656 C 12.5 14.554688 14.574219 12.519531 17.117188 12.519531 C 19.648438 12.519531 21.71875 14.53125 21.792969 17.058594 C 21.792969 17.027344 21.796875 16.992188 21.796875 16.960938 C 21.796875 14.378906 19.703125 12.285156 17.121094 12.285156 Z M 17.117188 12.285156 "/>
</g>
<mask id="mask1">
  <g filter="url(#alpha)">
<rect x="0" y="0" width="22" height="22" style="fill:rgb(0%,0%,0%);fill-opacity:0.2;stroke:none;"/>
  </g>
</mask>
<clipPath id="clip2">
  <rect x="0" y="0" width="22" height="22"/>
</clipPath>
<g id="surface8" clip-path="url(#clip2)">
<path style=" stroke:none;fill-rule:nonzero;fill:rgb(0%,0%,0%);fill-opacity:1;" d="M 21.789062 17.058594 C 21.738281 19.601562 19.664062 21.636719 17.117188 21.636719 C 14.589844 21.636719 12.519531 19.625 12.445312 17.097656 C 12.445312 17.128906 12.441406 17.164062 12.441406 17.195312 C 12.441406 19.777344 14.535156 21.871094 17.117188 21.871094 C 19.703125 21.871094 21.796875 19.777344 21.796875 17.195312 C 21.792969 17.148438 21.792969 17.105469 21.789062 17.058594 Z M 21.789062 17.058594 "/>
</g>
<mask id="mask2">
  <g filter="url(#alpha)">
<rect x="0" y="0" width="22" height="22" style="fill:rgb(0%,0%,0%);fill-opacity:0.2;stroke:none;"/>
  </g>
</mask>
<clipPath id="clip3">
  <rect x="0" y="0" width="22" height="22"/>
</clipPath>
<g id="surface11" clip-path="url(#clip3)">
<path style=" stroke:none;fill-rule:nonzero;fill:rgb(0%,0%,0%);fill-opacity:1;" d="M 17.117188 14.15625 C 16.472656 14.15625 15.949219 14.679688 15.949219 15.324219 C 15.949219 15.96875 16.472656 16.492188 17.117188 16.492188 C 17.765625 16.492188 18.289062 15.96875 18.289062 15.324219 C 18.289062 14.679688 17.765625 14.15625 17.117188 14.15625 Z M 17.117188 17.195312 C 14.78125 17.195312 14.78125 18.691406 14.78125 18.691406 L 14.78125 19.300781 C 14.78125 19.300781 15.210938 20.234375 17.117188 20.234375 C 19.027344 20.234375 19.457031 19.300781 19.457031 19.300781 L 19.457031 18.691406 C 19.457031 18.691406 19.457031 17.195312 17.117188 17.195312 Z M 17.117188 17.195312 "/>
</g>
</defs>
<g id="surface1">
<path style="fill-rule:nonzero;fill:rgb(80.392158%,61.176473%,42.745098%);fill-opacity:1;stroke-width:0.860629;stroke-linecap:butt;stroke-linejoin:miter;stroke:rgb(80.392158%,61.176473%,42.745098%);stroke-opacity:1;stroke-miterlimit:4;" d="M 18.665145 9.019887 L 109.393181 9.019887 C 115.165908 9.019887 119.85625 13.686175 119.85625 19.482956 L 119.85625 105.737128 C 119.85625 111.509855 115.165908 116.200196 109.393181 116.200196 L 18.665145 116.200196 C 12.892417 116.200196 8.202076 111.509855 8.202076 105.737128 L 8.202076 19.482956 C 8.202076 13.686175 12.892417 9.019887 18.665145 9.019887 Z M 18.665145 9.019887 " transform="matrix(0.162402,0,0,0.162402,0.00000123903,0)"/>
<path style=" stroke:none;fill-rule:nonzero;fill:rgb(5.882353%,33.725491%,85.09804%);fill-opacity:1;" d="M 21.796875 16.960938 C 21.796875 19.542969 19.703125 21.636719 17.117188 21.636719 C 14.535156 21.636719 12.441406 19.542969 12.441406 16.960938 C 12.441406 14.378906 14.535156 12.285156 17.117188 12.285156 C 19.703125 12.285156 21.796875 14.378906 21.796875 16.960938 Z M 21.796875 16.960938 "/>
<use xlink:href="#surface5" mask="url(#mask0)"/>
<use xlink:href="#surface8" mask="url(#mask1)"/>
<use xlink:href="#surface11" mask="url(#mask2)"/>
<path style=" stroke:none;fill-rule:nonzero;fill:rgb(100%,100%,100%);fill-opacity:1;" d="M 17.117188 13.921875 C 16.472656 13.921875 15.949219 14.445312 15.949219 15.089844 C 15.949219 15.734375 16.472656 16.261719 17.117188 16.261719 C 17.765625 16.261719 18.289062 15.734375 18.289062 15.089844 C 18.289062 14.445312 17.765625 13.921875 17.117188 13.921875 Z M 17.117188 16.960938 C 14.78125 16.964844 14.78125 18.457031 14.78125 18.457031 L 14.78125 19.066406 C 14.78125 19.066406 15.210938 20 17.117188 20 C 19.027344 20 19.457031 19.066406 19.457031 19.066406 L 19.457031 18.457031 C 19.457031 18.457031 19.457031 16.960938 17.117188 16.960938 Z M 17.117188 16.960938 "/>
<path style="fill-rule:nonzero;fill:rgb(89.019608%,76.862746%,66.274512%);fill-opacity:1;stroke-width:0.528713;stroke-linecap:butt;stroke-linejoin:miter;stroke:rgb(89.019608%,76.862746%,66.274512%);stroke-opacity:1;stroke-miterlimit:4;" d="M 52.844503 8.80341 L 73.265527 8.80341 L 73.265527 19.001895 L 52.844503 19.001895 Z M 52.844503 8.80341 " transform="matrix(0.162402,0,0,0.162402,0.00000123903,0)"/>
<path style="fill-rule:nonzero;fill:rgb(89.019608%,76.862746%,66.274512%);fill-opacity:1;stroke-width:0.528713;stroke-linecap:butt;stroke-linejoin:miter;stroke:rgb(89.019608%,76.862746%,66.274512%);stroke-opacity:1;stroke-miterlimit:4;" d="M 51.641852 106.290347 L 72.062875 106.290347 L 72.062875 116.512886 L 51.641852 116.512886 Z M 51.641852 106.290347 " transform="matrix(0.162402,0,0,0.162402,0.00000123903,0)"/>
<path style="fill:none;stroke-width:5.66387;stroke-linecap:butt;stroke-linejoin:miter;stroke:rgb(12.156863%,9.019608%,5.882353%);stroke-opacity:1;stroke-miterlimit:4;" d="M 86.422535 62.321405 C 86.422535 75.478414 75.742989 86.133907 62.585981 86.133907 C 49.428973 86.133907 38.77348 75.478414 38.77348 62.321405 C 38.77348 49.164397 49.428973 38.508904 62.585981 38.508904 C 75.742989 38.508904 86.422535 49.164397 86.422535 62.321405 Z M 86.422535 62.321405 " transform="matrix(0.162402,0,0,0.162402,0.00000123903,0)"/>
<path style=" stroke:none;fill-rule:nonzero;fill:rgb(12.156863%,9.019608%,5.882353%);fill-opacity:1;" d="M 9.1875 7.808594 L 11.121094 7.808594 L 11.121094 9.789062 L 9.1875 9.789062 Z M 9.1875 7.808594 "/>
<path style="fill-rule:nonzero;fill:rgb(12.156863%,9.019608%,5.882353%);fill-opacity:1;stroke-width:0.289017;stroke-linecap:butt;stroke-linejoin:miter;stroke:rgb(12.156863%,9.019608%,5.882353%);stroke-opacity:1;stroke-miterlimit:4;" d="M 46.975563 60.252845 L 78.701512 60.252845 L 62.321398 77.474815 Z M 46.975563 60.252845 " transform="matrix(0.162402,0,0,0.162402,0.00000123903,0)"/>
</g>
</svg>
