<?xml version="1.0" encoding="UTF-8" standalone="no"?>
<svg
   xmlns:dc="http://purl.org/dc/elements/1.1/"
   xmlns:cc="http://creativecommons.org/ns#"
   xmlns:rdf="http://www.w3.org/1999/02/22-rdf-syntax-ns#"
   xmlns:svg="http://www.w3.org/2000/svg"
   xmlns="http://www.w3.org/2000/svg"
   xmlns:sodipodi="http://sodipodi.sourceforge.net/DTD/sodipodi-0.dtd"
   xmlns:inkscape="http://www.inkscape.org/namespaces/inkscape"
   width="48"
   height="48"
   version="1"
   id="svg18"
   sodipodi:docname="mx-codecs2.svg"
   inkscape:version="0.92.4 (5da689c313, 2019-01-14)">
  <metadata
     id="metadata24">
    <rdf:RDF>
      <cc:Work
         rdf:about="">
        <dc:format>image/svg+xml</dc:format>
        <dc:type
           rdf:resource="http://purl.org/dc/dcmitype/StillImage" />
        <dc:title></dc:title>
      </cc:Work>
    </rdf:RDF>
  </metadata>
  <defs
     id="defs22" />
  <sodipodi:namedview
     pagecolor="#ffffff"
     bordercolor="#666666"
     borderopacity="1"
     objecttolerance="10"
     gridtolerance="10"
     guidetolerance="10"
     inkscape:pageopacity="0"
     inkscape:pageshadow="2"
     inkscape:window-width="1876"
     inkscape:window-height="1054"
     id="namedview20"
     showgrid="false"
     inkscape:zoom="4.9166667"
     inkscape:cx="24"
     inkscape:cy="24"
     inkscape:window-x="44"
     inkscape:window-y="0"
     inkscape:window-maximized="1"
     inkscape:current-layer="svg18" />
  <path
     style="opacity:0.2"
     d="M 44,43 V 7 C 44,5.892 43.108,5 42,5 H 6 C 4.892,5 4,5.892 4,7 v 36 c 0,1.108 0.892,2 2,2 h 36 c 1.108,0 2,-0.892 2,-2 z"
     id="path2" />
  <path
     d="M 44,42 V 6 C 44,4.892 43.108,4 42,4 H 6 C 4.892,4 4,4.892 4,6 v 36 c 0,1.108 0.892,2 2,2 h 36 c 1.108,0 2,-0.892 2,-2 z"
     style="fill:#4f4f4f"
     id="path4" />
  <path
     style="opacity:0.1;fill:#ffffff"
     d="M 6,4 C 4.892,4 4,4.892 4,6 V 7 C 4,5.892 4.892,5 6,5 h 36 c 1.108,0 2,0.892 2,2 V 6 C 44,4.892 43.108,4 42,4 Z"
     id="path6" />
  <path
     style="opacity:0.2"
     d="m 8,9 v 4 h 4 V 9 Z m 9,0 c -1.108,0 -2,0.892 -2,2 v 6 c 0,1.108 0.892,2 2,2 h 14 c 1.108,0 2,-0.892 2,-2 V 11 C 33,9.892 32.108,9 31,9 Z m 19,0 v 4 h 4 V 9 Z M 8,16 v 4 h 4 v -4 z m 28,0 v 4 h 4 v -4 z m -19,4 c -1.108,0 -2,0.892 -2,2 v 6 c 0,1.108 0.892,2 2,2 h 14 c 1.108,0 2,-0.892 2,-2 v -6 c 0,-1.108 -0.892,-2 -2,-2 z m -9,3 v 4 h 4 v -4 z m 28,0 v 4 h 4 V 23 Z M 8,30 v 4 h 4 v -4 z m 28,0 v 4 h 4 v -4 z m -19,1 c -1.108,0 -2,0.892 -2,2 v 6 c 0,1.108 0.892,2 2,2 h 14 c 1.108,0 2,-0.892 2,-2 v -6 c 0,-1.108 -0.892,-2 -2,-2 z m -9,6 v 4 h 4 v -4 z m 28,0 v 4 h 4 v -4 z"
     id="path8" />
  <path
     style="fill:#ffffff"
     d="m 8,8 v 4 h 4 V 8 Z m 28,0 v 4 h 4 V 8 Z M 8,15 v 4 h 4 v -4 z m 28,0 v 4 h 4 V 15 Z M 8,22 v 4 h 4 v -4 z m 28,0 v 4 h 4 V 22 Z M 8,29 v 4 h 4 v -4 z m 28,0 v 4 h 4 V 29 Z M 8,36 v 4 h 4 v -4 z m 28,0 v 4 h 4 v -4 z"
     id="path10" />
  <rect
     width="18"
     height="10"
     x="15"
     y="19"
     rx="2"
     ry="2"
     style="fill:#28a1e1"
     id="rect12" />
  <rect
     style="fill:#28a1e1"
     width="18"
     height="10"
     x="15"
     y="8"
     rx="2"
     ry="2"
     id="rect14" />
  <rect
     width="18"
     height="10"
     x="15"
     y="30"
     rx="2"
     ry="2"
     style="fill:#28a1e1"
     id="rect16" />
  <g
     id="g918"
     transform="matrix(0.60338984,0,0,0.5684167,9.559269,-0.57594995)">
    <path
       id="path895"
       style="opacity:0.2;fill-rule:evenodd"
       d="M 5.5345836,27 C 5.3710971,26.999567 2.2660318,26.999058 5.3809578,29.783203 L 21.944244,44.183594 C 22.559329,44.718391 23.193843,44.989824 24,45 c 0.806157,-0.01018 1.440671,-0.281609 2.055756,-0.816406 L 42.619042,29.783203 C 45.733968,26.999058 42.628903,26.999567 42.465416,27 H 24 Z"
       inkscape:connector-curvature="0" />
    <path
       id="path897"
       d="M 13,4 C 12.169,4 11,4.892 11,6 V 27 H 24 37 V 6 C 37,4.892 35.831,4 35,4 Z"
       style="fill:#ff961b"
       inkscape:connector-curvature="0" />
    <path
       id="path899"
       d="M 5.5345836,26 C 5.3710971,25.999567 2.2660318,25.999058 5.3809578,28.783203 L 21.944244,43.183594 C 22.559329,43.718391 23.193843,43.989824 24,44 c 0.806157,-0.01018 1.440671,-0.281609 2.055756,-0.816406 L 42.619042,28.783203 C 45.733968,25.999058 42.628903,25.999567 42.465416,26 H 24 Z"
       style="fill:#ffe330;fill-rule:evenodd"
       inkscape:connector-curvature="0" />
    <path
       id="path901"
       d="m 13,4 c -0.831,0 -2,0.892 -2,2 v 1 c 0,-1.108 1.169,-2 2,-2 h 22 c 0.831,0 2,0.892 2,2 V 6 C 37,4.892 35.831,4 35,4 Z"
       style="opacity:0.1;fill:#ffffff"
       inkscape:connector-curvature="0" />
    <path
       id="path903"
       d="M 5.5351562,26 C 5.4052175,25.999656 3.4262281,26.004636 4.1796875,27.402344 4.5633961,27.003491 5.4495992,26.999773 5.5351562,27 H 24 42.464844 c 0.08556,-2.27e-4 0.97176,0.0035 1.355468,0.402344 C 44.573772,26.004636 42.594783,25.999656 42.464844,26 H 24 Z"
       style="opacity:0.2;fill:#ffffff;fill-rule:evenodd"
       inkscape:connector-curvature="0" />
  </g>
</svg>
