<?xml version="1.0" encoding="UTF-8" standalone="no"?>
<svg
   xmlns:dc="http://purl.org/dc/elements/1.1/"
   xmlns:cc="http://creativecommons.org/ns#"
   xmlns:rdf="http://www.w3.org/1999/02/22-rdf-syntax-ns#"
   xmlns:svg="http://www.w3.org/2000/svg"
   xmlns="http://www.w3.org/2000/svg"
   xmlns:sodipodi="http://sodipodi.sourceforge.net/DTD/sodipodi-0.dtd"
   xmlns:inkscape="http://www.inkscape.org/namespaces/inkscape"
   version="1.1"
   width="512"
   height="512"
   id="svg6"
   sodipodi:docname="mx-repo-manager5.svg"
   inkscape:version="0.92.4 (5da689c313, 2019-01-14)">
  <metadata
     id="metadata12">
    <rdf:RDF>
      <cc:Work
         rdf:about="">
        <dc:format>image/svg+xml</dc:format>
        <dc:type
           rdf:resource="http://purl.org/dc/dcmitype/StillImage" />
        <dc:title></dc:title>
      </cc:Work>
    </rdf:RDF>
  </metadata>
  <defs
     id="defs10" />
  <sodipodi:namedview
     pagecolor="#ffffff"
     bordercolor="#666666"
     borderopacity="1"
     objecttolerance="10"
     gridtolerance="10"
     guidetolerance="10"
     inkscape:pageopacity="0"
     inkscape:pageshadow="2"
     inkscape:window-width="1876"
     inkscape:window-height="1054"
     id="namedview8"
     showgrid="false"
     inkscape:zoom="0.4609375"
     inkscape:cx="-149.69492"
     inkscape:cy="256"
     inkscape:window-x="44"
     inkscape:window-y="0"
     inkscape:window-maximized="1"
     inkscape:current-layer="svg6" />
  <path
     style="fill:#3c96d6;stroke-width:0.95867783"
     d="m 56.676587,447.25057 c -18.954379,-4.96358 -34.4176,-20.50347 -39.270229,-39.46492 -1.288642,-5.03532 -1.472465,-26.61287 -1.472465,-172.83744 0,-184.173896 -0.404081,-171.883598 6.077938,-184.865875 4.178902,-8.369573 14.613609,-18.753636 23.023993,-22.91227 13.043001,-6.449285 0.796273,-6.048446 184.797246,-6.048446 184.00097,0 171.75424,-0.400839 184.79725,6.048446 8.41038,4.158634 18.84508,14.542697 23.02399,22.91227 6.48202,12.982277 6.07794,0.691979 6.07794,184.865875 0,146.22457 -0.18382,167.80212 -1.47246,172.83744 -4.90819,19.17851 -20.44456,34.63946 -39.71657,39.52384 -8.50874,2.15647 -337.620819,2.10042 -345.866633,-0.0589 z"
     id="path2"
     inkscape:connector-curvature="0" />
  <path
     style="fill:#ffffff"
     d="m 278.36882,294.58191 c 26.85165,-29.82566 45.83192,-51.69912 45.31204,-52.219 -0.49204,-0.49205 -12.00907,-1.01649 -25.59337,-1.16543 l -24.69874,-0.27079 -0.50471,-53.49923 -0.50471,-53.49922 h -41.8909 -41.89091 l -0.50471,53.49922 -0.50471,53.49923 -25.23547,0.50471 c -16.3751,0.32749 -25.23549,0.87109 -25.23549,1.54823 0,2.02324 91.82564,103.38036 93.45109,103.15129 0.87666,-0.12355 22.38693,-23.3206 47.80059,-51.54901 z"
     id="path4"
     inkscape:connector-curvature="0" />
  <g
     id="g883"
     transform="matrix(5.718644,0,0,5.5559322,254.34576,265.84407)">
    <circle
       id="circle869"
       r="20"
       cy="24"
       cx="24"
       style="fill:#252a35" />
    <path
       id="path871"
       d="m 21,10 v 3.419922 a 11.000001,11.000001 0 0 0 -2.351562,0.984375 l -2.425782,-2.425781 -4.24414,4.24414 2.419922,2.419922 A 11.000001,11.000001 0 0 0 13.427734,21 H 10 v 6 h 3.419922 a 11.000001,11.000001 0 0 0 0.984375,2.351562 l -2.425781,2.425782 4.24414,4.24414 2.419922,-2.419922 A 11.000001,11.000001 0 0 0 21,34.572266 V 38 h 6 v -3.419922 a 11.000001,11.000001 0 0 0 2.351562,-0.984375 l 2.425782,2.425781 4.24414,-4.24414 -2.419922,-2.419922 A 11.000001,11.000001 0 0 0 34.572266,27 H 38 v -6 h -3.419922 a 11.000001,11.000001 0 0 0 -0.984375,-2.351562 l 2.425781,-2.425782 -4.24414,-4.24414 -2.419922,2.419922 A 11.000001,11.000001 0 0 0 27,13.427734 V 10 Z m 3,9 a 5,5 0 0 1 5,5 5,5 0 0 1 -5,5 5,5 0 0 1 -5,-5 5,5 0 0 1 5,-5 z"
       style="fill:#ffffff"
       inkscape:connector-curvature="0" />
  </g>
</svg>
