<?xml version="1.0" encoding="UTF-8" standalone="no"?>
<!-- Created with Inkscape (http://www.inkscape.org/) -->

<svg
   width="512"
   height="512"
   viewBox="0 0 135.46666 135.46667"
   version="1.1"
   id="svg5"
   xmlns="http://www.w3.org/2000/svg"
   xmlns:svg="http://www.w3.org/2000/svg">
  <defs
     id="defs2" />
  <g
     id="layer2"
     style="display:inline">
    <rect
       style="fill:#cd9c6d;fill-opacity:1;stroke:#cd9c6d;stroke-width:0.860629;stroke-opacity:1"
       id="rect1064"
       width="111.65084"
       height="107.18237"
       x="8.2065868"
       y="9.0160646"
       rx="10.455315"
       ry="10.455315" />
  </g>
  <g
     id="layer3"
     style="display:inline">
    <g
       id="g511"
       transform="matrix(1.1631577,0,0,1.1631577,-111.139,-34.479016)">
      <circle
         fill="#5294E2"
         cx="186.17253"
         cy="119.43353"
         r="24.76083"
         id="circle151"
         style="fill:#0f56d9;fill-opacity:1;stroke-width:1.23804" />
      <path
         fill="#ffffff"
         opacity="0.2"
         d="m 186.17258,94.672676 a 24.76083,24.76083 0 0 0 -24.76084,24.760844 24.76083,24.76083 0 0 0 0.028,0.72055 24.76083,24.76083 0 0 1 24.73362,-24.243322 24.76083,24.76083 0 0 1 24.73482,24.040282 24.76083,24.76083 0 0 0 0.0281,-0.51751 24.76083,24.76083 0 0 0 -24.7608,-24.760844 z"
         id="path153"
         style="stroke-width:1.23804" />
      <path
         opacity="0.2"
         d="m 210.90741,119.95103 a 24.76083,24.76083 0 0 1 -24.73483,24.24333 24.76083,24.76083 0 0 1 -24.7336,-24.04029 24.76083,24.76083 0 0 0 -0.0281,0.51747 24.76083,24.76083 0 0 0 24.76085,24.76085 24.76083,24.76083 0 0 0 24.76084,-24.76085 24.76083,24.76083 0 0 0 -0.028,-0.72051 z"
         id="path155"
         style="stroke-width:1.23804" />
      <path
         style="opacity:0.2;stroke-width:1.23804"
         d="m 186.17258,104.57702 c -3.41947,0 -6.19022,2.77197 -6.19022,6.19022 0,3.41822 2.77075,6.19017 6.19022,6.19017 3.41947,0 6.19023,-2.77195 6.19023,-6.19017 0,-3.41825 -2.77076,-6.19022 -6.19023,-6.19022 z m 0,16.09452 c -12.37918,0.01 -12.3804,7.9235 -12.3804,7.9235 v 3.21888 c 0,0 2.28562,4.95219 12.3804,4.95219 10.09479,0 12.38041,-4.95219 12.38041,-4.95219 v -3.21888 c 0,0 0,-7.92842 -12.37792,-7.9235 z"
         id="path157" />
      <path
         style="fill:#ffffff;stroke-width:1.23804"
         d="m 186.17258,103.339 c -3.41947,0 -6.19022,2.77196 -6.19022,6.19018 0,3.41825 2.77075,6.19022 6.19022,6.19022 3.41947,0 6.19023,-2.77197 6.19023,-6.19022 0,-3.41822 -2.77076,-6.19018 -6.19023,-6.19018 z m 0,16.09452 c -12.37918,0.01 -12.3804,7.92344 -12.3804,7.92344 v 3.21893 c 0,0 2.28562,4.95215 12.3804,4.95215 10.09479,0 12.38041,-4.95215 12.38041,-4.95215 v -3.21893 c 0,0 0,-7.9284 -12.37792,-7.92344 z"
         id="path159" />
    </g>
  </g>
  <g
     id="layer4"
     style="display:inline">
    <rect
       style="fill:#e3c4a9;fill-opacity:1;stroke:#e3c4a9;stroke-width:0.528713;stroke-miterlimit:4;stroke-dasharray:none;stroke-opacity:1"
       id="rect7323"
       width="20.402576"
       height="10.206772"
       x="52.856476"
       y="8.8065434" />
    <rect
       style="fill:#e3c4a9;fill-opacity:1;stroke:#e3c4a9;stroke-width:0.528713;stroke-miterlimit:4;stroke-dasharray:none;stroke-opacity:1"
       id="rect13472"
       width="20.402576"
       height="10.206772"
       x="51.652142"
       y="106.30162" />
    <ellipse
       style="fill:#1f170f;fill-opacity:0;stroke:#1f170f;stroke-width:5.66387;stroke-miterlimit:4;stroke-dasharray:none;stroke-opacity:1"
       id="path13496"
       cx="62.593575"
       cy="62.319721"
       rx="23.817114"
       ry="23.81749" />
    <rect
       style="fill:#1f170f;fill-opacity:1;stroke:#1f170f;stroke-width:0;stroke-miterlimit:4;stroke-dasharray:none;stroke-opacity:1"
       id="rect18227"
       width="11.914873"
       height="12.205479"
       x="56.575718"
       y="48.074356" />
    <path
       style="fill:#1f170f;fill-opacity:1;stroke:#1f170f;stroke-width:0.289017px;stroke-linecap:butt;stroke-linejoin:miter;stroke-opacity:1"
       d="M 46.970868,60.256988 H 78.701904 L 62.324648,77.463855 Z"
       id="path18507" />
  </g>
</svg>
