<?xml version="1.0" encoding="UTF-8"?>
<svg xmlns="http://www.w3.org/2000/svg" xmlns:xlink="http://www.w3.org/1999/xlink" width="16" height="16" viewBox="0 0 16 16" version="1.1">
<defs>
<filter id="alpha" filterUnits="objectBoundingBox" x="0%" y="0%" width="100%" height="100%">
  <feColorMatrix type="matrix" in="SourceGraphic" values="0 0 0 0 1 0 0 0 0 1 0 0 0 0 1 0 0 0 1 0"/>
</filter>
<mask id="mask0">
  <g filter="url(#alpha)">
<rect x="0" y="0" width="16" height="16" style="fill:rgb(0%,0%,0%);fill-opacity:0.2;stroke:none;"/>
  </g>
</mask>
<clipPath id="clip1">
  <rect x="0" y="0" width="16" height="16"/>
</clipPath>
<g id="surface5" clip-path="url(#clip1)">
<path style=" stroke:none;fill-rule:nonzero;fill:rgb(100%,100%,100%);fill-opacity:1;" d="M 12.449219 8.933594 C 10.570312 8.933594 9.046875 10.457031 9.046875 12.335938 C 9.050781 12.367188 9.050781 12.402344 9.050781 12.433594 C 9.089844 10.585938 10.601562 9.105469 12.449219 9.105469 C 14.289062 9.105469 15.792969 10.566406 15.847656 12.40625 C 15.851562 12.382812 15.851562 12.359375 15.851562 12.335938 C 15.851562 10.457031 14.328125 8.933594 12.449219 8.933594 Z M 12.449219 8.933594 "/>
</g>
<mask id="mask1">
  <g filter="url(#alpha)">
<rect x="0" y="0" width="16" height="16" style="fill:rgb(0%,0%,0%);fill-opacity:0.2;stroke:none;"/>
  </g>
</mask>
<clipPath id="clip2">
  <rect x="0" y="0" width="16" height="16"/>
</clipPath>
<g id="surface8" clip-path="url(#clip2)">
<path style=" stroke:none;fill-rule:nonzero;fill:rgb(0%,0%,0%);fill-opacity:1;" d="M 15.847656 12.40625 C 15.808594 14.257812 14.300781 15.734375 12.449219 15.738281 C 10.609375 15.734375 9.105469 14.273438 9.050781 12.433594 C 9.050781 12.457031 9.050781 12.480469 9.046875 12.503906 C 9.046875 14.382812 10.570312 15.90625 12.449219 15.90625 C 14.328125 15.90625 15.851562 14.382812 15.851562 12.503906 C 15.851562 12.472656 15.847656 12.441406 15.847656 12.40625 Z M 15.847656 12.40625 "/>
</g>
<mask id="mask2">
  <g filter="url(#alpha)">
<rect x="0" y="0" width="16" height="16" style="fill:rgb(0%,0%,0%);fill-opacity:0.2;stroke:none;"/>
  </g>
</mask>
<clipPath id="clip3">
  <rect x="0" y="0" width="16" height="16"/>
</clipPath>
<g id="surface11" clip-path="url(#clip3)">
<path style=" stroke:none;fill-rule:nonzero;fill:rgb(0%,0%,0%);fill-opacity:1;" d="M 12.449219 10.292969 C 11.980469 10.292969 11.597656 10.675781 11.597656 11.144531 C 11.597656 11.613281 11.980469 11.996094 12.449219 11.996094 C 12.917969 11.996094 13.300781 11.613281 13.300781 11.144531 C 13.300781 10.675781 12.917969 10.292969 12.449219 10.292969 Z M 12.449219 12.503906 C 10.75 12.507812 10.75 13.59375 10.75 13.59375 L 10.75 14.035156 C 10.75 14.035156 11.0625 14.714844 12.449219 14.714844 C 13.835938 14.714844 14.152344 14.035156 14.152344 14.035156 L 14.152344 13.59375 C 14.152344 13.59375 14.152344 12.503906 12.449219 12.503906 Z M 12.449219 12.503906 "/>
</g>
</defs>
<g id="surface1">
<path style="fill-rule:nonzero;fill:rgb(80.392158%,61.176473%,42.745098%);fill-opacity:1;stroke-width:0.860629;stroke-linecap:butt;stroke-linejoin:miter;stroke:rgb(80.392158%,61.176473%,42.745098%);stroke-opacity:1;stroke-miterlimit:4;" d="M 18.653118 9.028907 L 109.405207 9.028907 C 115.159895 9.028907 119.85625 13.692188 119.85625 19.479949 L 119.85625 105.734121 C 119.85625 111.521882 115.159895 116.185163 109.405207 116.185163 L 18.653118 116.185163 C 12.898431 116.185163 8.202076 111.521882 8.202076 105.734121 L 8.202076 19.479949 C 8.202076 13.692188 12.898431 9.028907 18.653118 9.028907 Z M 18.653118 9.028907 " transform="matrix(0.11811,0,0,0.11811,0.00000090111,0)"/>
<path style=" stroke:none;fill-rule:nonzero;fill:rgb(5.882353%,33.725491%,85.09804%);fill-opacity:1;" d="M 15.851562 12.335938 C 15.851562 14.214844 14.328125 15.738281 12.449219 15.738281 C 10.570312 15.738281 9.046875 14.214844 9.046875 12.335938 C 9.046875 10.457031 10.570312 8.933594 12.449219 8.933594 C 14.328125 8.933594 15.851562 10.457031 15.851562 12.335938 Z M 15.851562 12.335938 "/>
<use xlink:href="#surface5" mask="url(#mask0)"/>
<use xlink:href="#surface8" mask="url(#mask1)"/>
<use xlink:href="#surface11" mask="url(#mask2)"/>
<path style=" stroke:none;fill-rule:nonzero;fill:rgb(100%,100%,100%);fill-opacity:1;" d="M 12.449219 10.125 C 11.980469 10.125 11.597656 10.503906 11.597656 10.976562 C 11.597656 11.445312 11.980469 11.824219 12.449219 11.824219 C 12.917969 11.824219 13.300781 11.445312 13.300781 10.976562 C 13.300781 10.503906 12.917969 10.125 12.449219 10.125 Z M 12.449219 12.335938 C 10.75 12.335938 10.75 13.425781 10.75 13.425781 L 10.75 13.867188 C 10.75 13.867188 11.0625 14.546875 12.449219 14.546875 C 13.835938 14.546875 14.152344 13.867188 14.152344 13.867188 L 14.152344 13.425781 C 14.152344 13.425781 14.152344 12.335938 12.449219 12.335938 Z M 12.449219 12.335938 "/>
<path style="fill-rule:nonzero;fill:rgb(89.019608%,76.862746%,66.274512%);fill-opacity:1;stroke-width:0.528713;stroke-linecap:butt;stroke-linejoin:miter;stroke:rgb(89.019608%,76.862746%,66.274512%);stroke-opacity:1;stroke-miterlimit:4;" d="M 52.850516 8.797396 L 73.256507 8.797396 L 73.256507 19.016928 L 52.850516 19.016928 Z M 52.850516 8.797396 " transform="matrix(0.11811,0,0,0.11811,0.00000090111,0)"/>
<path style="fill-rule:nonzero;fill:rgb(89.019608%,76.862746%,66.274512%);fill-opacity:1;stroke-width:0.528713;stroke-linecap:butt;stroke-linejoin:miter;stroke:rgb(89.019608%,76.862746%,66.274512%);stroke-opacity:1;stroke-miterlimit:4;" d="M 51.659891 106.296361 L 72.065882 106.296361 L 72.065882 116.515892 L 51.659891 116.515892 Z M 51.659891 106.296361 " transform="matrix(0.11811,0,0,0.11811,0.00000090111,0)"/>
<path style="fill:none;stroke-width:5.66387;stroke-linecap:butt;stroke-linejoin:miter;stroke:rgb(12.156863%,9.019608%,5.882353%);stroke-opacity:1;stroke-miterlimit:4;" d="M 86.419529 62.309379 C 86.419529 75.4724 75.736976 86.12188 62.607027 86.12188 C 49.444006 86.12188 38.761453 75.4724 38.761453 62.309379 C 38.761453 49.17943 49.444006 38.496877 62.607027 38.496877 C 75.736976 38.496877 86.419529 49.17943 86.419529 62.309379 Z M 86.419529 62.309379 " transform="matrix(0.11811,0,0,0.11811,0.00000090111,0)"/>
<path style=" stroke:none;fill-rule:nonzero;fill:rgb(12.156863%,9.019608%,5.882353%);fill-opacity:1;" d="M 6.683594 5.679688 L 8.089844 5.679688 L 8.089844 7.121094 L 6.683594 7.121094 Z M 6.683594 5.679688 "/>
<path style="fill-rule:nonzero;fill:rgb(12.156863%,9.019608%,5.882353%);fill-opacity:1;stroke-width:0.289017;stroke-linecap:butt;stroke-linejoin:miter;stroke:rgb(12.156863%,9.019608%,5.882353%);stroke-opacity:1;stroke-miterlimit:4;" d="M 46.963537 60.258858 L 78.713539 60.258858 L 62.309371 77.456775 Z M 46.963537 60.258858 " transform="matrix(0.11811,0,0,0.11811,0.00000090111,0)"/>
</g>
</svg>
