<?xml version="1.0" encoding="UTF-8"?>
<svg xmlns="http://www.w3.org/2000/svg" xmlns:xlink="http://www.w3.org/1999/xlink" width="24" height="24" viewBox="0 0 24 24" version="1.1">
<defs>
<filter id="alpha" filterUnits="objectBoundingBox" x="0%" y="0%" width="100%" height="100%">
  <feColorMatrix type="matrix" in="SourceGraphic" values="0 0 0 0 1 0 0 0 0 1 0 0 0 0 1 0 0 0 1 0"/>
</filter>
<mask id="mask0">
  <g filter="url(#alpha)">
<rect x="0" y="0" width="24" height="24" style="fill:rgb(0%,0%,0%);fill-opacity:0.2;stroke:none;"/>
  </g>
</mask>
<clipPath id="clip1">
  <rect x="0" y="0" width="24" height="24"/>
</clipPath>
<g id="surface5" clip-path="url(#clip1)">
<path style=" stroke:none;fill-rule:nonzero;fill:rgb(100%,100%,100%);fill-opacity:1;" d="M 18.675781 13.402344 C 15.855469 13.402344 13.574219 15.683594 13.574219 18.503906 C 13.574219 18.554688 13.574219 18.601562 13.578125 18.652344 C 13.636719 15.878906 15.898438 13.660156 18.675781 13.65625 C 21.433594 13.65625 23.691406 15.851562 23.773438 18.609375 C 23.773438 18.574219 23.777344 18.539062 23.777344 18.503906 C 23.777344 15.683594 21.492188 13.402344 18.675781 13.402344 Z M 18.675781 13.402344 "/>
</g>
<mask id="mask1">
  <g filter="url(#alpha)">
<rect x="0" y="0" width="24" height="24" style="fill:rgb(0%,0%,0%);fill-opacity:0.2;stroke:none;"/>
  </g>
</mask>
<clipPath id="clip2">
  <rect x="0" y="0" width="24" height="24"/>
</clipPath>
<g id="surface8" clip-path="url(#clip2)">
<path style=" stroke:none;fill-rule:nonzero;fill:rgb(0%,0%,0%);fill-opacity:1;" d="M 23.773438 18.609375 C 23.714844 21.382812 21.449219 23.601562 18.675781 23.605469 C 15.914062 23.605469 13.660156 21.410156 13.578125 18.652344 C 13.574219 18.6875 13.574219 18.722656 13.570312 18.757812 C 13.570312 21.578125 15.855469 23.859375 18.675781 23.859375 C 21.492188 23.859375 23.777344 21.578125 23.777344 18.757812 C 23.777344 18.707031 23.773438 18.660156 23.769531 18.609375 Z M 23.773438 18.609375 "/>
</g>
<mask id="mask2">
  <g filter="url(#alpha)">
<rect x="0" y="0" width="24" height="24" style="fill:rgb(0%,0%,0%);fill-opacity:0.2;stroke:none;"/>
  </g>
</mask>
<clipPath id="clip3">
  <rect x="0" y="0" width="24" height="24"/>
</clipPath>
<g id="surface11" clip-path="url(#clip3)">
<path style=" stroke:none;fill-rule:nonzero;fill:rgb(0%,0%,0%);fill-opacity:1;" d="M 18.675781 15.441406 C 17.96875 15.441406 17.398438 16.011719 17.398438 16.71875 C 17.398438 17.421875 17.96875 17.992188 18.675781 17.992188 C 19.378906 17.992188 19.949219 17.421875 19.949219 16.71875 C 19.949219 16.011719 19.378906 15.441406 18.675781 15.441406 Z M 18.675781 18.757812 C 16.125 18.761719 16.125 20.390625 16.125 20.390625 L 16.125 21.054688 C 16.125 21.054688 16.59375 22.074219 18.675781 22.074219 C 20.753906 22.074219 21.226562 21.054688 21.226562 21.054688 L 21.226562 20.390625 C 21.226562 20.390625 21.226562 18.757812 18.675781 18.757812 Z M 18.675781 18.757812 "/>
</g>
</defs>
<g id="surface1">
<path style="fill-rule:nonzero;fill:rgb(80.392158%,61.176473%,42.745098%);fill-opacity:1;stroke-width:0.860629;stroke-linecap:butt;stroke-linejoin:miter;stroke:rgb(80.392158%,61.176473%,42.745098%);stroke-opacity:1;stroke-miterlimit:4;" d="M 18.653118 9.017882 L 109.405207 9.017882 C 115.181944 9.017882 119.85625 13.692188 119.85625 19.468925 L 119.85625 105.745145 C 119.85625 111.521882 115.181944 116.196188 109.405207 116.196188 L 18.653118 116.196188 C 12.898431 116.196188 8.202076 111.521882 8.202076 105.745145 L 8.202076 19.468925 C 8.202076 13.692188 12.898431 9.017882 18.653118 9.017882 Z M 18.653118 9.017882 " transform="matrix(0.177165,0,0,0.177165,0.00000135166,0)"/>
<path style=" stroke:none;fill-rule:nonzero;fill:rgb(5.882353%,33.725491%,85.09804%);fill-opacity:1;" d="M 23.777344 18.503906 C 23.777344 21.320312 21.492188 23.605469 18.675781 23.605469 C 15.855469 23.605469 13.574219 21.320312 13.574219 18.503906 C 13.574219 15.683594 15.855469 13.402344 18.675781 13.402344 C 21.492188 13.402344 23.777344 15.683594 23.777344 18.503906 Z M 23.777344 18.503906 "/>
<use xlink:href="#surface5" mask="url(#mask0)"/>
<use xlink:href="#surface8" mask="url(#mask1)"/>
<use xlink:href="#surface11" mask="url(#mask2)"/>
<path style=" stroke:none;fill-rule:nonzero;fill:rgb(100%,100%,100%);fill-opacity:1;" d="M 18.675781 15.1875 C 17.96875 15.1875 17.398438 15.757812 17.398438 16.460938 C 17.398438 17.167969 17.96875 17.738281 18.675781 17.738281 C 19.378906 17.738281 19.949219 17.167969 19.949219 16.460938 C 19.949219 15.757812 19.378906 15.1875 18.675781 15.1875 Z M 18.675781 18.503906 C 16.125 18.503906 16.125 20.136719 16.125 20.136719 L 16.125 20.800781 C 16.125 20.800781 16.59375 21.820312 18.675781 21.820312 C 20.753906 21.820312 21.226562 20.800781 21.226562 20.800781 L 21.226562 20.136719 C 21.226562 20.136719 21.226562 18.503906 18.675781 18.503906 Z M 18.675781 18.503906 "/>
<path style="fill-rule:nonzero;fill:rgb(89.019608%,76.862746%,66.274512%);fill-opacity:1;stroke-width:0.528713;stroke-linecap:butt;stroke-linejoin:miter;stroke:rgb(89.019608%,76.862746%,66.274512%);stroke-opacity:1;stroke-miterlimit:4;" d="M 52.850516 8.797396 L 73.267531 8.797396 L 73.267531 19.005904 L 52.850516 19.005904 Z M 52.850516 8.797396 " transform="matrix(0.177165,0,0,0.177165,0.00000135166,0)"/>
<path style="fill-rule:nonzero;fill:rgb(89.019608%,76.862746%,66.274512%);fill-opacity:1;stroke-width:0.528713;stroke-linecap:butt;stroke-linejoin:miter;stroke:rgb(89.019608%,76.862746%,66.274512%);stroke-opacity:1;stroke-miterlimit:4;" d="M 51.659891 106.296361 L 72.054858 106.296361 L 72.054858 116.504868 L 51.659891 116.504868 Z M 51.659891 106.296361 " transform="matrix(0.177165,0,0,0.177165,0.00000135166,0)"/>
<path style="fill:none;stroke-width:5.66387;stroke-linecap:butt;stroke-linejoin:miter;stroke:rgb(12.156863%,9.019608%,5.882353%);stroke-opacity:1;stroke-miterlimit:4;" d="M 86.408505 62.309379 C 86.408505 75.4724 75.736976 86.143929 62.596003 86.143929 C 49.432981 86.143929 38.783502 75.4724 38.783502 62.309379 C 38.783502 49.168406 49.432981 38.496877 62.596003 38.496877 C 75.736976 38.496877 86.408505 49.168406 86.408505 62.309379 Z M 86.408505 62.309379 " transform="matrix(0.177165,0,0,0.177165,0.00000135166,0)"/>
<path style=" stroke:none;fill-rule:nonzero;fill:rgb(12.156863%,9.019608%,5.882353%);fill-opacity:1;" d="M 10.023438 8.515625 L 12.132812 8.515625 L 12.132812 10.679688 L 10.023438 10.679688 Z M 10.023438 8.515625 "/>
<path style="fill-rule:nonzero;fill:rgb(12.156863%,9.019608%,5.882353%);fill-opacity:1;stroke-width:0.289017;stroke-linecap:butt;stroke-linejoin:miter;stroke:rgb(12.156863%,9.019608%,5.882353%);stroke-opacity:1;stroke-miterlimit:4;" d="M 46.963537 60.258858 L 78.69149 60.258858 L 62.33142 77.456775 Z M 46.963537 60.258858 " transform="matrix(0.177165,0,0,0.177165,0.00000135166,0)"/>
</g>
</svg>
