<?xml version="1.0" encoding="UTF-8"?>
<svg xmlns="http://www.w3.org/2000/svg" xmlns:xlink="http://www.w3.org/1999/xlink" width="48" height="48" viewBox="0 0 48 48" version="1.1">
<defs>
<filter id="alpha" filterUnits="objectBoundingBox" x="0%" y="0%" width="100%" height="100%">
  <feColorMatrix type="matrix" in="SourceGraphic" values="0 0 0 0 1 0 0 0 0 1 0 0 0 0 1 0 0 0 1 0"/>
</filter>
<mask id="mask0">
  <g filter="url(#alpha)">
<rect x="0" y="0" width="48" height="48" style="fill:rgb(0%,0%,0%);fill-opacity:0.2;stroke:none;"/>
  </g>
</mask>
<clipPath id="clip1">
  <rect x="0" y="0" width="48" height="48"/>
</clipPath>
<g id="surface5" clip-path="url(#clip1)">
<path style=" stroke:none;fill-rule:nonzero;fill:rgb(100%,100%,100%);fill-opacity:1;" d="M 37.351562 26.800781 C 31.714844 26.800781 27.144531 31.371094 27.144531 37.007812 C 27.148438 37.105469 27.152344 37.203125 27.15625 37.304688 C 27.273438 31.753906 31.800781 27.316406 37.351562 27.3125 C 42.867188 27.316406 47.382812 31.703125 47.542969 37.21875 C 47.550781 37.148438 47.550781 37.078125 47.554688 37.007812 C 47.554688 31.371094 42.988281 26.800781 37.351562 26.800781 Z M 37.351562 26.800781 "/>
</g>
<mask id="mask1">
  <g filter="url(#alpha)">
<rect x="0" y="0" width="48" height="48" style="fill:rgb(0%,0%,0%);fill-opacity:0.2;stroke:none;"/>
  </g>
</mask>
<clipPath id="clip2">
  <rect x="0" y="0" width="48" height="48"/>
</clipPath>
<g id="surface8" clip-path="url(#clip2)">
<path style=" stroke:none;fill-rule:nonzero;fill:rgb(0%,0%,0%);fill-opacity:1;" d="M 47.542969 37.21875 C 47.429688 42.769531 42.898438 47.207031 37.351562 47.210938 C 31.832031 47.207031 27.316406 42.820312 27.15625 37.304688 C 27.152344 37.375 27.148438 37.445312 27.144531 37.515625 C 27.144531 43.152344 31.714844 47.722656 37.347656 47.722656 C 42.984375 47.722656 47.554688 43.152344 47.554688 37.515625 C 47.550781 37.417969 47.546875 37.320312 47.542969 37.21875 Z M 47.542969 37.21875 "/>
</g>
<mask id="mask2">
  <g filter="url(#alpha)">
<rect x="0" y="0" width="48" height="48" style="fill:rgb(0%,0%,0%);fill-opacity:0.2;stroke:none;"/>
  </g>
</mask>
<clipPath id="clip3">
  <rect x="0" y="0" width="48" height="48"/>
</clipPath>
<g id="surface11" clip-path="url(#clip3)">
<path style=" stroke:none;fill-rule:nonzero;fill:rgb(0%,0%,0%);fill-opacity:1;" d="M 37.351562 30.882812 C 35.941406 30.882812 34.796875 32.027344 34.796875 33.433594 C 34.796875 34.84375 35.941406 35.984375 37.351562 35.984375 C 38.757812 35.984375 39.902344 34.84375 39.902344 33.433594 C 39.902344 32.027344 38.757812 30.882812 37.351562 30.882812 Z M 37.351562 37.515625 C 32.246094 37.519531 32.246094 40.78125 32.246094 40.78125 L 32.246094 42.109375 C 32.246094 42.109375 33.1875 44.148438 37.351562 44.148438 C 41.511719 44.148438 42.453125 42.109375 42.453125 42.109375 L 42.453125 40.78125 C 42.453125 40.78125 42.453125 37.515625 37.351562 37.515625 Z M 37.351562 37.515625 "/>
</g>
</defs>
<g id="surface1">
<path style="fill-rule:nonzero;fill:rgb(80.392158%,61.176473%,42.745098%);fill-opacity:1;stroke-width:0.860629;stroke-linecap:butt;stroke-linejoin:miter;stroke:rgb(80.392158%,61.176473%,42.745098%);stroke-opacity:1;stroke-miterlimit:4;" d="M 18.664143 9.017882 L 109.405207 9.017882 C 115.170919 9.017882 119.85625 13.692188 119.85625 19.468925 L 119.85625 105.745145 C 119.85625 111.521882 115.170919 116.196188 109.405207 116.196188 L 18.664143 116.196188 C 12.887406 116.196188 8.202076 111.521882 8.202076 105.745145 L 8.202076 19.468925 C 8.202076 13.692188 12.887406 9.017882 18.664143 9.017882 Z M 18.664143 9.017882 " transform="matrix(0.354331,0,0,0.354331,0.00000270333,0)"/>
<path style=" stroke:none;fill-rule:nonzero;fill:rgb(5.882353%,33.725491%,85.09804%);fill-opacity:1;" d="M 47.554688 37.007812 C 47.554688 42.644531 42.984375 47.210938 37.351562 47.210938 C 31.714844 47.210938 27.144531 42.644531 27.144531 37.007812 C 27.144531 31.371094 31.714844 26.800781 37.351562 26.800781 C 42.984375 26.800781 47.554688 31.371094 47.554688 37.007812 Z M 47.554688 37.007812 "/>
<use xlink:href="#surface5" mask="url(#mask0)"/>
<use xlink:href="#surface8" mask="url(#mask1)"/>
<use xlink:href="#surface11" mask="url(#mask2)"/>
<path style=" stroke:none;fill-rule:nonzero;fill:rgb(100%,100%,100%);fill-opacity:1;" d="M 37.351562 30.375 C 35.941406 30.375 34.796875 31.515625 34.796875 32.925781 C 34.796875 34.332031 35.941406 35.476562 37.351562 35.476562 C 38.757812 35.476562 39.902344 34.332031 39.902344 32.925781 C 39.902344 31.515625 38.757812 30.375 37.351562 30.375 Z M 37.351562 37.007812 C 32.246094 37.011719 32.246094 40.273438 32.246094 40.273438 L 32.246094 41.597656 C 32.246094 41.597656 33.1875 43.640625 37.351562 43.640625 C 41.511719 43.640625 42.453125 41.597656 42.453125 41.597656 L 42.453125 40.273438 C 42.453125 40.273438 42.453125 37.003906 37.351562 37.007812 Z M 37.351562 37.007812 "/>
<path style="fill-rule:nonzero;fill:rgb(89.019608%,76.862746%,66.274512%);fill-opacity:1;stroke-width:0.528713;stroke-linecap:butt;stroke-linejoin:miter;stroke:rgb(89.019608%,76.862746%,66.274512%);stroke-opacity:1;stroke-miterlimit:4;" d="M 52.861541 8.808421 L 73.256507 8.808421 L 73.256507 19.016928 L 52.861541 19.016928 Z M 52.861541 8.808421 " transform="matrix(0.354331,0,0,0.354331,0.00000270333,0)"/>
<path style="fill-rule:nonzero;fill:rgb(89.019608%,76.862746%,66.274512%);fill-opacity:1;stroke-width:0.528713;stroke-linecap:butt;stroke-linejoin:miter;stroke:rgb(89.019608%,76.862746%,66.274512%);stroke-opacity:1;stroke-miterlimit:4;" d="M 51.648867 106.296361 L 72.054858 106.296361 L 72.054858 116.504868 L 51.648867 116.504868 Z M 51.648867 106.296361 " transform="matrix(0.354331,0,0,0.354331,0.00000270333,0)"/>
<path style="fill:none;stroke-width:5.66387;stroke-linecap:butt;stroke-linejoin:miter;stroke:rgb(12.156863%,9.019608%,5.882353%);stroke-opacity:1;stroke-miterlimit:4;" d="M 86.408505 62.320403 C 86.408505 75.4724 75.748 86.132904 62.596003 86.132904 C 49.444006 86.132904 38.772477 75.4724 38.772477 62.320403 C 38.772477 49.168406 49.444006 38.496877 62.596003 38.496877 C 75.748 38.496877 86.408505 49.168406 86.408505 62.320403 Z M 86.408505 62.320403 " transform="matrix(0.354331,0,0,0.354331,0.00000270333,0)"/>
<path style=" stroke:none;fill-rule:nonzero;fill:rgb(12.156863%,9.019608%,5.882353%);fill-opacity:1;" d="M 20.046875 17.035156 L 24.269531 17.035156 L 24.269531 21.359375 L 20.046875 21.359375 Z M 20.046875 17.035156 "/>
<path style="fill-rule:nonzero;fill:rgb(12.156863%,9.019608%,5.882353%);fill-opacity:1;stroke-width:0.289017;stroke-linecap:butt;stroke-linejoin:miter;stroke:rgb(12.156863%,9.019608%,5.882353%);stroke-opacity:1;stroke-miterlimit:4;" d="M 46.974561 60.258858 L 78.702514 60.258858 L 62.320395 77.4678 Z M 46.974561 60.258858 " transform="matrix(0.354331,0,0,0.354331,0.00000270333,0)"/>
</g>
</svg>
