/* XPM */
static char * top_right_inactive_xpm[] = {
"2 26 3 1",
" 	c None",
".	c #364248",
"+	c #1D2324",
". ",
"+.",
"+.",
"+.",
"+.",
"+.",
"+.",
"+.",
"+.",
"+.",
"+.",
"+.",
"+.",
"+.",
"+.",
"+.",
"+.",
"+.",
"+.",
"+.",
"+.",
"+.",
"+.",
"+.",
"+.",
"+."};
