<?xml version="1.0" encoding="UTF-8"?>
<svg xmlns="http://www.w3.org/2000/svg" xmlns:xlink="http://www.w3.org/1999/xlink" width="128" height="128" viewBox="0 0 128 128" version="1.1">
<defs>
<filter id="alpha" filterUnits="objectBoundingBox" x="0%" y="0%" width="100%" height="100%">
  <feColorMatrix type="matrix" in="SourceGraphic" values="0 0 0 0 1 0 0 0 0 1 0 0 0 0 1 0 0 0 1 0"/>
</filter>
<mask id="mask0">
  <g filter="url(#alpha)">
<rect x="0" y="0" width="128" height="128" style="fill:rgb(0%,0%,0%);fill-opacity:0.2;stroke:none;"/>
  </g>
</mask>
<clipPath id="clip1">
  <rect x="0" y="0" width="128" height="128"/>
</clipPath>
<g id="surface5" clip-path="url(#clip1)">
<path style=" stroke:none;fill-rule:nonzero;fill:rgb(100%,100%,100%);fill-opacity:1;" d="M 99.597656 71.472656 C 84.570312 71.472656 72.386719 83.65625 72.386719 98.683594 C 72.390625 98.949219 72.402344 99.210938 72.417969 99.476562 C 72.726562 84.679688 84.800781 72.84375 99.601562 72.832031 C 114.316406 72.839844 126.355469 84.542969 126.785156 99.253906 C 126.796875 99.0625 126.808594 98.875 126.816406 98.683594 C 126.816406 83.65625 114.632812 71.472656 99.601562 71.472656 Z M 99.597656 71.472656 "/>
</g>
<mask id="mask1">
  <g filter="url(#alpha)">
<rect x="0" y="0" width="128" height="128" style="fill:rgb(0%,0%,0%);fill-opacity:0.2;stroke:none;"/>
  </g>
</mask>
<clipPath id="clip2">
  <rect x="0" y="0" width="128" height="128"/>
</clipPath>
<g id="surface8" clip-path="url(#clip2)">
<path style=" stroke:none;fill-rule:nonzero;fill:rgb(0%,0%,0%);fill-opacity:1;" d="M 126.785156 99.253906 C 126.472656 114.050781 114.398438 125.886719 99.597656 125.898438 C 84.886719 125.886719 72.84375 114.183594 72.414062 99.476562 C 72.402344 99.664062 72.394531 99.855469 72.386719 100.046875 C 72.386719 115.074219 84.570312 127.257812 99.597656 127.257812 C 114.628906 127.257812 126.8125 115.074219 126.8125 100.046875 C 126.804688 99.78125 126.792969 99.515625 126.78125 99.253906 Z M 126.785156 99.253906 "/>
</g>
<mask id="mask2">
  <g filter="url(#alpha)">
<rect x="0" y="0" width="128" height="128" style="fill:rgb(0%,0%,0%);fill-opacity:0.2;stroke:none;"/>
  </g>
</mask>
<clipPath id="clip3">
  <rect x="0" y="0" width="128" height="128"/>
</clipPath>
<g id="surface11" clip-path="url(#clip3)">
<path style=" stroke:none;fill-rule:nonzero;fill:rgb(0%,0%,0%);fill-opacity:1;" d="M 99.597656 82.355469 C 95.839844 82.355469 92.796875 85.402344 92.796875 89.160156 C 92.796875 92.917969 95.839844 95.964844 99.597656 95.964844 C 103.355469 95.964844 106.402344 92.917969 106.402344 89.160156 C 106.402344 85.402344 103.355469 82.355469 99.597656 82.355469 Z M 99.597656 100.046875 C 85.992188 100.054688 85.992188 108.753906 85.992188 108.753906 L 85.992188 112.292969 C 85.992188 112.292969 88.503906 117.734375 99.597656 117.734375 C 110.695312 117.734375 113.207031 112.292969 113.207031 112.292969 L 113.207031 108.753906 C 113.207031 108.753906 113.207031 100.039062 99.601562 100.046875 Z M 99.597656 100.046875 "/>
</g>
</defs>
<g id="surface1">
<path style="fill-rule:nonzero;fill:rgb(80.392158%,61.176473%,42.745098%);fill-opacity:1;stroke-width:0.860629;stroke-linecap:butt;stroke-linejoin:miter;stroke:rgb(80.392158%,61.176473%,42.745098%);stroke-opacity:1;stroke-miterlimit:4;" d="M 18.661387 9.016504 L 109.401073 9.016504 C 115.176432 9.016504 119.85625 13.696322 119.85625 19.471681 L 119.85625 105.742389 C 119.85625 111.517748 115.176432 116.197566 109.401073 116.197566 L 18.661387 116.197566 C 12.886028 116.197566 8.20621 111.517748 8.20621 105.742389 L 8.20621 19.471681 C 8.20621 13.696322 12.886028 9.016504 18.661387 9.016504 Z M 18.661387 9.016504 " transform="matrix(0.944882,0,0,0.944882,0.00000720888,0)"/>
<path style=" stroke:none;fill-rule:nonzero;fill:rgb(5.882353%,33.725491%,85.09804%);fill-opacity:1;" d="M 126.8125 98.683594 C 126.8125 113.714844 114.628906 125.898438 99.597656 125.898438 C 84.570312 125.898438 72.386719 113.714844 72.386719 98.683594 C 72.386719 83.65625 84.570312 71.472656 99.597656 71.472656 C 114.628906 71.472656 126.8125 83.65625 126.8125 98.683594 Z M 126.8125 98.683594 "/>
<use xlink:href="#surface5" mask="url(#mask0)"/>
<use xlink:href="#surface8" mask="url(#mask1)"/>
<use xlink:href="#surface11" mask="url(#mask2)"/>
<path style=" stroke:none;fill-rule:nonzero;fill:rgb(100%,100%,100%);fill-opacity:1;" d="M 99.597656 80.996094 C 95.839844 80.996094 92.796875 84.042969 92.796875 87.800781 C 92.796875 91.554688 95.839844 94.601562 99.597656 94.601562 C 103.355469 94.601562 106.402344 91.554688 106.402344 87.800781 C 106.402344 84.042969 103.355469 80.996094 99.597656 80.996094 Z M 99.597656 98.683594 C 85.992188 98.695312 85.992188 107.394531 85.992188 107.394531 L 85.992188 110.929688 C 85.992188 110.929688 88.503906 116.371094 99.597656 116.371094 C 110.695312 116.371094 113.207031 110.929688 113.207031 110.929688 L 113.207031 107.394531 C 113.207031 107.394531 113.207031 98.679688 99.601562 98.683594 Z M 99.597656 98.683594 "/>
<path style="fill-rule:nonzero;fill:rgb(89.019608%,76.862746%,66.274512%);fill-opacity:1;stroke-width:0.528713;stroke-linecap:butt;stroke-linejoin:miter;stroke:rgb(89.019608%,76.862746%,66.274512%);stroke-opacity:1;stroke-miterlimit:4;" d="M 52.85465 8.805665 L 73.260641 8.805665 L 73.260641 19.012794 L 52.85465 19.012794 Z M 52.85465 8.805665 " transform="matrix(0.944882,0,0,0.944882,0.00000720888,0)"/>
<path style="fill-rule:nonzero;fill:rgb(89.019608%,76.862746%,66.274512%);fill-opacity:1;stroke-width:0.528713;stroke-linecap:butt;stroke-linejoin:miter;stroke:rgb(89.019608%,76.862746%,66.274512%);stroke-opacity:1;stroke-miterlimit:4;" d="M 51.651623 106.300495 L 72.05348 106.300495 L 72.05348 116.507624 L 51.651623 116.507624 Z M 51.651623 106.300495 " transform="matrix(0.944882,0,0,0.944882,0.00000720888,0)"/>
<path style="fill:none;stroke-width:5.66387;stroke-linecap:butt;stroke-linejoin:miter;stroke:rgb(12.156863%,9.019608%,5.882353%);stroke-opacity:1;stroke-miterlimit:4;" d="M 86.411261 62.321781 C 86.411261 75.4724 75.749378 86.138417 62.594625 86.138417 C 49.439872 86.138417 38.777989 75.4724 38.777989 62.321781 C 38.777989 49.167028 49.439872 38.501011 62.594625 38.501011 C 75.749378 38.501011 86.411261 49.167028 86.411261 62.321781 Z M 86.411261 62.321781 " transform="matrix(0.944882,0,0,0.944882,0.00000720888,0)"/>
<path style=" stroke:none;fill-rule:nonzero;fill:rgb(12.156863%,9.019608%,5.882353%);fill-opacity:1;" d="M 53.457031 45.425781 L 64.714844 45.425781 L 64.714844 56.957031 L 53.457031 56.957031 Z M 53.457031 45.425781 "/>
<path style="fill-rule:nonzero;fill:rgb(12.156863%,9.019608%,5.882353%);fill-opacity:1;stroke-width:0.289017;stroke-linecap:butt;stroke-linejoin:miter;stroke:rgb(12.156863%,9.019608%,5.882353%);stroke-opacity:1;stroke-miterlimit:4;" d="M 46.971805 60.258858 L 78.701136 60.258858 L 62.325908 77.465044 Z M 46.971805 60.258858 " transform="matrix(0.944882,0,0,0.944882,0.00000720888,0)"/>
</g>
</svg>
