/* XPM */
static char * bottom_right_inactive_xpm[] = {
"16 16 3 1",
"       c None",
".	c #DEDFE3",
"x	c #8D9199",
"        ......xx"};
"        ......xx"};
"        ......xx"};
"        ......xx"};
"        ......xx"};
"        ......xx"};
"        ......xx"};
"        ......xx"};
"..............xx"};
"..............xx"};
"..............xx"};
"..............xx"};
"..............xx"};
"..............xx"};
"xxxxxxxxxxxxxxxx"};
"xxxxxxxxxxxxxxxx"};
