/* XPM */
static char * bottom_inactive_xpm[] = {
"1 8 2 1",
" 	c #DEDFE3",
".	c #8D9199",
" ",
" ",
" ",
" ",
" ",
" ",
".",
"."};
