/* XPM */
static char * title_4_inactive_new_xpm[] = {
"2 26 3 1",
" 	c None",
".	c #8D9199",
"+	c #1D2324",
"..",
"..",
"++",
"++",
"++",
"++",
"++",
"++",
"++",
"++",
"++",
"++",
"++",
"++",
"++",
"++",
"++",
"++",
"++",
"++",
"++",
"++",
"++",
"++",
"++",
"++"};
