<?xml version="1.0" encoding="UTF-8"?>
<svg xmlns="http://www.w3.org/2000/svg" xmlns:xlink="http://www.w3.org/1999/xlink" width="64" height="64" viewBox="0 0 64 64" version="1.1">
<defs>
<filter id="alpha" filterUnits="objectBoundingBox" x="0%" y="0%" width="100%" height="100%">
  <feColorMatrix type="matrix" in="SourceGraphic" values="0 0 0 0 1 0 0 0 0 1 0 0 0 0 1 0 0 0 1 0"/>
</filter>
<mask id="mask0">
  <g filter="url(#alpha)">
<rect x="0" y="0" width="64" height="64" style="fill:rgb(0%,0%,0%);fill-opacity:0.2;stroke:none;"/>
  </g>
</mask>
<clipPath id="clip1">
  <rect x="0" y="0" width="64" height="64"/>
</clipPath>
<g id="surface5" clip-path="url(#clip1)">
<path style=" stroke:none;fill-rule:nonzero;fill:rgb(100%,100%,100%);fill-opacity:1;" d="M 49.800781 35.734375 C 42.285156 35.734375 36.191406 41.828125 36.191406 49.34375 C 36.195312 49.472656 36.203125 49.605469 36.207031 49.738281 C 36.363281 42.339844 42.402344 36.421875 49.800781 36.414062 C 57.15625 36.421875 63.179688 42.273438 63.390625 49.625 C 63.398438 49.53125 63.402344 49.4375 63.40625 49.34375 C 63.40625 41.828125 57.316406 35.734375 49.800781 35.734375 Z M 49.800781 35.734375 "/>
</g>
<mask id="mask1">
  <g filter="url(#alpha)">
<rect x="0" y="0" width="64" height="64" style="fill:rgb(0%,0%,0%);fill-opacity:0.2;stroke:none;"/>
  </g>
</mask>
<clipPath id="clip2">
  <rect x="0" y="0" width="64" height="64"/>
</clipPath>
<g id="surface8" clip-path="url(#clip2)">
<path style=" stroke:none;fill-rule:nonzero;fill:rgb(0%,0%,0%);fill-opacity:1;" d="M 63.390625 49.625 C 63.238281 57.023438 57.199219 62.941406 49.800781 62.949219 C 42.441406 62.945312 36.421875 57.09375 36.207031 49.738281 C 36.203125 49.832031 36.195312 49.925781 36.191406 50.023438 C 36.191406 57.539062 42.285156 63.628906 49.800781 63.628906 C 57.3125 63.628906 63.40625 57.539062 63.40625 50.023438 C 63.402344 49.890625 63.398438 49.757812 63.390625 49.625 Z M 63.390625 49.625 "/>
</g>
<mask id="mask2">
  <g filter="url(#alpha)">
<rect x="0" y="0" width="64" height="64" style="fill:rgb(0%,0%,0%);fill-opacity:0.2;stroke:none;"/>
  </g>
</mask>
<clipPath id="clip3">
  <rect x="0" y="0" width="64" height="64"/>
</clipPath>
<g id="surface11" clip-path="url(#clip3)">
<path style=" stroke:none;fill-rule:nonzero;fill:rgb(0%,0%,0%);fill-opacity:1;" d="M 49.800781 41.179688 C 47.921875 41.179688 46.398438 42.703125 46.398438 44.578125 C 46.398438 46.457031 47.921875 47.980469 49.800781 47.980469 C 51.679688 47.980469 53.203125 46.457031 53.203125 44.578125 C 53.203125 42.703125 51.679688 41.179688 49.800781 41.179688 Z M 49.800781 50.023438 C 42.996094 50.027344 42.996094 54.375 42.996094 54.375 L 42.996094 56.144531 C 42.996094 56.144531 44.253906 58.867188 49.800781 58.867188 C 55.347656 58.867188 56.601562 56.144531 56.601562 56.144531 L 56.601562 54.375 C 56.601562 54.375 56.601562 50.019531 49.800781 50.023438 Z M 49.800781 50.023438 "/>
</g>
</defs>
<g id="surface1">
<path style="fill-rule:nonzero;fill:rgb(80.392158%,61.176473%,42.745098%);fill-opacity:1;stroke-width:0.860629;stroke-linecap:butt;stroke-linejoin:miter;stroke:rgb(80.392158%,61.176473%,42.745098%);stroke-opacity:1;stroke-miterlimit:4;" d="M 18.661387 9.01237 L 109.405207 9.01237 C 115.176432 9.01237 119.85625 13.700457 119.85625 19.471681 L 119.85625 105.742389 C 119.85625 111.513613 115.176432 116.2017 109.405207 116.2017 L 18.661387 116.2017 C 12.890162 116.2017 8.210344 111.513613 8.210344 105.742389 L 8.210344 19.471681 C 8.210344 13.700457 12.890162 9.01237 18.661387 9.01237 Z M 18.661387 9.01237 " transform="matrix(0.472441,0,0,0.472441,0.00000360444,0)"/>
<path style=" stroke:none;fill-rule:nonzero;fill:rgb(5.882353%,33.725491%,85.09804%);fill-opacity:1;" d="M 63.40625 49.34375 C 63.40625 56.855469 57.3125 62.949219 49.800781 62.949219 C 42.285156 62.949219 36.191406 56.855469 36.191406 49.34375 C 36.191406 41.828125 42.285156 35.734375 49.800781 35.734375 C 57.3125 35.734375 63.40625 41.828125 63.40625 49.34375 Z M 63.40625 49.34375 "/>
<use xlink:href="#surface5" mask="url(#mask0)"/>
<use xlink:href="#surface8" mask="url(#mask1)"/>
<use xlink:href="#surface11" mask="url(#mask2)"/>
<path style=" stroke:none;fill-rule:nonzero;fill:rgb(100%,100%,100%);fill-opacity:1;" d="M 49.800781 40.496094 C 47.921875 40.496094 46.398438 42.019531 46.398438 43.898438 C 46.398438 45.777344 47.921875 47.300781 49.800781 47.300781 C 51.679688 47.300781 53.203125 45.777344 53.203125 43.898438 C 53.203125 42.019531 51.679688 40.496094 49.800781 40.496094 Z M 49.800781 49.34375 C 42.996094 49.347656 42.996094 53.695312 42.996094 53.695312 L 42.996094 55.464844 C 42.996094 55.464844 44.253906 58.1875 49.800781 58.1875 C 55.347656 58.1875 56.601562 55.464844 56.601562 55.464844 L 56.601562 53.695312 C 56.601562 53.695312 56.601562 49.339844 49.800781 49.34375 Z M 49.800781 49.34375 "/>
<path style="fill-rule:nonzero;fill:rgb(89.019608%,76.862746%,66.274512%);fill-opacity:1;stroke-width:0.528713;stroke-linecap:butt;stroke-linejoin:miter;stroke:rgb(89.019608%,76.862746%,66.274512%);stroke-opacity:1;stroke-miterlimit:4;" d="M 52.858785 8.805665 L 73.256507 8.805665 L 73.256507 19.016928 L 52.858785 19.016928 Z M 52.858785 8.805665 " transform="matrix(0.472441,0,0,0.472441,0.00000360444,0)"/>
<path style="fill-rule:nonzero;fill:rgb(89.019608%,76.862746%,66.274512%);fill-opacity:1;stroke-width:0.528713;stroke-linecap:butt;stroke-linejoin:miter;stroke:rgb(89.019608%,76.862746%,66.274512%);stroke-opacity:1;stroke-miterlimit:4;" d="M 51.651623 106.304629 L 72.057614 106.304629 L 72.057614 116.507624 L 51.651623 116.507624 Z M 51.651623 106.304629 " transform="matrix(0.472441,0,0,0.472441,0.00000360444,0)"/>
<path style="fill:none;stroke-width:5.66387;stroke-linecap:butt;stroke-linejoin:miter;stroke:rgb(12.156863%,9.019608%,5.882353%);stroke-opacity:1;stroke-miterlimit:4;" d="M 86.411261 62.317647 C 86.411261 75.4724 75.745244 86.138417 62.590491 86.138417 C 49.435738 86.138417 38.777989 75.4724 38.777989 62.317647 C 38.777989 49.162894 49.435738 38.505146 62.590491 38.505146 C 75.745244 38.505146 86.411261 49.162894 86.411261 62.317647 Z M 86.411261 62.317647 " transform="matrix(0.472441,0,0,0.472441,0.00000360444,0)"/>
<path style=" stroke:none;fill-rule:nonzero;fill:rgb(12.156863%,9.019608%,5.882353%);fill-opacity:1;" d="M 26.730469 22.710938 L 32.359375 22.710938 L 32.359375 28.480469 L 26.730469 28.480469 Z M 26.730469 22.710938 "/>
<path style="fill-rule:nonzero;fill:rgb(12.156863%,9.019608%,5.882353%);fill-opacity:1;stroke-width:0.289017;stroke-linecap:butt;stroke-linejoin:miter;stroke:rgb(12.156863%,9.019608%,5.882353%);stroke-opacity:1;stroke-miterlimit:4;" d="M 46.971805 60.258858 L 78.705271 60.258858 L 62.325908 77.465044 Z M 46.971805 60.258858 " transform="matrix(0.472441,0,0,0.472441,0.00000360444,0)"/>
</g>
</svg>
