<?xml version="1.0" encoding="UTF-8" standalone="no"?>
<svg
   version="1.1"
   id="svg5033"
   xml:space="preserve"
   width="1920"
   height="1080"
   viewBox="0 0 1920 1080"
   sodipodi:docname="gruvbox-dark-regolith2-noText.svg"
   inkscape:version="1.1.2 (08b2f3d93c, 2022-04-05)"
   inkscape:export-filename="/home/fjall/1577101987penguin-silhouette-3-freesvg.org3.png"
   inkscape:export-xdpi="96"
   inkscape:export-ydpi="96"
   xmlns:inkscape="http://www.inkscape.org/namespaces/inkscape"
   xmlns:sodipodi="http://sodipodi.sourceforge.net/DTD/sodipodi-0.dtd"
   xmlns:xlink="http://www.w3.org/1999/xlink"
   xmlns="http://www.w3.org/2000/svg"
   xmlns:svg="http://www.w3.org/2000/svg"
   xmlns:rdf="http://www.w3.org/1999/02/22-rdf-syntax-ns#"
   xmlns:cc="http://creativecommons.org/ns#"
   xmlns:dc="http://purl.org/dc/elements/1.1/"><metadata
     id="metadata5039"><rdf:RDF><cc:Work
         rdf:about=""><dc:format>image/svg+xml</dc:format><dc:type
           rdf:resource="http://purl.org/dc/dcmitype/StillImage" /></cc:Work></rdf:RDF></metadata><defs
     id="defs5037"><marker
       style="overflow:visible"
       id="Arrow1Lstart"
       refX="0"
       refY="0"
       orient="auto"
       inkscape:stockid="Arrow1Lstart"
       inkscape:isstock="true"><path
         transform="matrix(0.8,0,0,0.8,10,0)"
         style="fill:#c53d3d;fill-opacity:0.795004;fill-rule:evenodd;stroke:none;stroke-width:1pt;stroke-opacity:1"
         d="M 0,0 5,-5 -12.5,0 5,5 Z"
         id="path2155" /></marker><clipPath
       clipPathUnits="userSpaceOnUse"
       id="clipPath5049"><path
         d="M 0,600 H 600 V 0 H 0 Z"
         id="path5047"
         inkscape:connector-curvature="0" /></clipPath><linearGradient
       x1="112.49854"
       y1="6.1372099"
       x2="112.49853"
       y2="129.3468"
       id="path1082_2_"
       gradientUnits="userSpaceOnUse"
       gradientTransform="translate(287,-83)"><stop
         id="stop193"
         style="stop-color:#ffffff;stop-opacity:0"
         offset="0" /><stop
         id="stop195"
         style="stop-color:#ffffff;stop-opacity:0.27450982"
         offset="1" /><midPointStop
         offset="0"
         style="stop-color:#FFFFFF"
         id="midPointStop197" /><midPointStop
         offset="0.5"
         style="stop-color:#FFFFFF"
         id="midPointStop199" /><midPointStop
         offset="1"
         style="stop-color:#000000"
         id="midPointStop201" /></linearGradient><linearGradient
       x1="541.33502"
       y1="104.50665"
       x2="606.91248"
       y2="303.14029"
       id="linearGradient2544"
       xlink:href="#path1082_2_"
       gradientUnits="userSpaceOnUse"
       gradientTransform="matrix(-0.3937741,0,0,0.393752,357.51969,122.00151)" /><linearGradient
       id="linearGradient3388"><stop
         id="stop3390"
         style="stop-color:#000000;stop-opacity:0"
         offset="0" /><stop
         id="stop3392"
         style="stop-color:#000000;stop-opacity:0.37113401"
         offset="1" /></linearGradient><linearGradient
       x1="490.72305"
       y1="237.72447"
       x2="490.72305"
       y2="183.9644"
       id="linearGradient4416"
       xlink:href="#linearGradient3388"
       gradientUnits="userSpaceOnUse"
       gradientTransform="matrix(0.749107,0,0,0.749107,-35.459862,91.44108)" /><clipPath
       clipPathUnits="userSpaceOnUse"
       id="clipPath16"><path
         d="M 0,1567.127 H 1560.637 V 0 H 0 Z"
         id="path14" /></clipPath></defs><sodipodi:namedview
     pagecolor="#ffffff"
     bordercolor="#666666"
     borderopacity="1"
     objecttolerance="10"
     gridtolerance="10"
     guidetolerance="10"
     inkscape:pageopacity="0"
     inkscape:pageshadow="2"
     inkscape:window-width="1920"
     inkscape:window-height="1080"
     id="namedview5035"
     showgrid="false"
     inkscape:zoom="0.5359992"
     inkscape:cx="849.8147"
     inkscape:cy="447.76186"
     inkscape:window-x="0"
     inkscape:window-y="0"
     inkscape:window-maximized="1"
     inkscape:current-layer="g875"
     inkscape:document-rotation="0"
     inkscape:snap-global="true"
     showguides="true"
     inkscape:guide-bbox="true"
     fit-margin-top="0"
     fit-margin-left="0"
     fit-margin-right="0"
     fit-margin-bottom="0"
     inkscape:snap-intersection-paths="true"
     inkscape:pagecheckerboard="0"><inkscape:grid
       type="xygrid"
       id="grid997"
       originx="725.49429"
       originy="-129.70111" /></sodipodi:namedview><g
     id="g5041"
     inkscape:groupmode="layer"
     inkscape:label="penguin-clipart-publicdomainvectors.org"
     transform="matrix(1.3333333,0,0,-1.3333333,725.49429,670.29889)"><g
       id="g1027"
       inkscape:export-filename="/home/fjall/g1027.png"
       inkscape:export-xdpi="96"
       inkscape:export-ydpi="96"><rect
         style="fill:#282828;fill-opacity:1;fill-rule:nonzero;stroke-width:78.7272;stroke-linecap:round;stroke-linejoin:round;paint-order:stroke markers fill"
         id="rect835"
         width="1440"
         height="810"
         x="-544.12073"
         y="-502.72418"
         transform="scale(1,-1)" /><path
         id="path1001"
         style="fill:#689d6a;fill-opacity:1;stroke:none;stroke-width:2.64097;stroke-linejoin:round;stroke-miterlimit:4;stroke-dasharray:none;stroke-opacity:1;paint-order:stroke markers fill"
         d="M 895.87927,147.56143 V 120.69608 H 399.19491 c -3.47432,9.66701 -6.66325,18.63421 -9.54735,26.86535 z m -151.40519,0 V 120.69608 H 247.78972 c -3.47432,9.66701 -6.66325,18.63421 -9.54735,26.86535 z m 123.09534,0 V 120.69608 H 370.88506 c -3.47432,9.66701 -6.66325,18.63421 -9.54735,26.86535 z m -151.40519,0 V 120.69608 H 219.47987 c -3.47432,9.66701 -6.66325,18.63421 -9.54735,26.86535 z" /><path
         id="path1003"
         style="fill:#458588;fill-opacity:1;stroke:none;stroke-width:2.28714;stroke-linejoin:round;stroke-miterlimit:4;stroke-dasharray:none;stroke-opacity:1;paint-order:stroke markers fill"
         d="M 895.87927,120.69608 V 93.829031 H 408.93954 c -3.50418,9.584749 -6.74672,18.525569 -9.74463,26.867049 z m -151.40519,0 V 93.829031 H 257.53435 c -3.50418,9.584749 -6.74673,18.525569 -9.74463,26.867049 z m 123.09534,0 V 93.829031 H 380.62969 c -3.50418,9.584749 -6.74673,18.525569 -9.74463,26.867049 z m -151.40519,0 V 93.829031 H 229.2245 c -3.50418,9.584749 -6.74673,18.525569 -9.74463,26.867049 z" /><path
         id="path1005"
         style="fill:#d79921;fill-opacity:1;stroke:none;stroke-width:1.86745;stroke-linejoin:round;stroke-miterlimit:4;stroke-dasharray:none;stroke-opacity:1;paint-order:stroke markers fill"
         d="M 895.87927,93.829031 V 66.963652 H 418.82396 c -3.51658,9.503595 -6.804,18.439701 -9.88442,26.865379 z m -151.40519,0 V 66.963652 H 267.41877 c -3.51658,9.503595 -6.804,18.439701 -9.88442,26.865379 z m 123.09534,0 V 66.963652 H 390.51411 c -3.51658,9.503595 -6.804,18.439701 -9.88442,26.865379 z m -151.40519,0 V 66.963652 H 239.10892 c -3.51658,9.503595 -6.804,18.439701 -9.88442,26.865379 z" /><path
         id="path1007"
         style="fill:#cc241d;fill-opacity:1;stroke:none;stroke-width:1.32048;stroke-linejoin:round;stroke-miterlimit:4;stroke-dasharray:none;stroke-opacity:1;paint-order:stroke markers fill"
         d="M 895.87927,66.963652 V 40.098278 h -467.0559 c -3.46206,9.27529 -6.90554,18.504176 -9.99941,26.865374 z m -151.40519,0 V 40.098278 h -467.0559 c -3.46205,9.27529 -6.90554,18.504176 -9.99941,26.865374 z m 123.09534,0 V 40.098278 h -467.0559 c -3.46206,9.27529 -6.90554,18.504176 -9.99941,26.865374 z m -151.40519,0 V 40.098278 h -467.0559 c -3.46205,9.27529 -6.90554,18.504176 -9.99941,26.865374 z" /><path
         id="path1009"
         style="fill:#689d6a;fill-opacity:1;stroke:none;stroke-width:2.64097;stroke-linejoin:round;stroke-miterlimit:4;stroke-dasharray:none;stroke-opacity:1;paint-order:stroke markers fill"
         d="m -544.12073,147.56143 v -26.86535 h 496.684362 c 3.47432,9.66701 6.66325,18.63421 9.54735,26.86535 z m 151.40519,0 v -26.86535 h 496.68436 c 3.47432,9.66701 6.66325,18.63421 9.54735,26.86535 z m -123.09534,0 v -26.86535 h 496.684362 c 3.47432,9.66701 6.66325,18.63421 9.5473505,26.86535 z m 151.40519,0 v -26.86535 h 496.68436 c 3.47432,9.66701 6.66325,18.63421 9.54735,26.86535 z" /><path
         id="path1011"
         style="fill:#458588;fill-opacity:1;stroke:none;stroke-width:2.28714;stroke-linejoin:round;stroke-miterlimit:4;stroke-dasharray:none;stroke-opacity:1;paint-order:stroke markers fill"
         d="M -544.12073,120.69608 V 93.829031 h 486.939732 c 3.50418,9.584749 6.74672,18.525569 9.74463,26.867049 z m 151.40519,0 V 93.829031 H 94.224192 c 3.50418,9.584749 6.746728,18.525569 9.744628,26.867049 z m -123.09534,0 V 93.829031 h 486.939732 c 3.50418,9.584749 6.74673,18.525569 9.74463,26.867049 z m 151.40519,0 V 93.829031 h 486.93973 c 3.50418,9.584749 6.74673,18.525569 9.74463,26.867049 z" /><path
         id="path1013"
         style="fill:#d79921;fill-opacity:1;stroke:none;stroke-width:1.86745;stroke-linejoin:round;stroke-miterlimit:4;stroke-dasharray:none;stroke-opacity:1;paint-order:stroke markers fill"
         d="M -544.12073,93.829031 V 66.963652 h 477.055312 c 3.51658,9.503595 6.804,18.439701 9.88442,26.865379 z m 151.40519,0 V 66.963652 H 84.339772 c 3.51658,9.503595 6.804,18.439701 9.88442,26.865379 z m -123.09534,0 V 66.963652 h 477.055312 c 3.51658,9.503595 6.804,18.439701 9.88442,26.865379 z m 151.40519,0 V 66.963652 h 477.05531 c 3.51658,9.503595 6.804,18.439701 9.88442,26.865379 z" /><path
         id="path1015"
         style="fill:#cc241d;fill-opacity:1;stroke:none;stroke-width:1.32048;stroke-linejoin:round;stroke-miterlimit:4;stroke-dasharray:none;stroke-opacity:1;paint-order:stroke markers fill"
         d="M -544.12073,66.963652 V 40.098278 h 467.055902 c 3.46206,9.27529 6.90554,18.504176 9.99941,26.865374 z m 151.40519,0 V 40.098278 H 74.340362 c 3.46205,9.27529 6.90554,18.504176 9.99941,26.865374 z m -123.09534,0 V 40.098278 h 467.055902 c 3.46206,9.27529 6.90554,18.504176 9.99941,26.865374 z m 151.40519,0 V 40.098278 h 467.0559 c 3.46205,9.27529 6.90554,18.504176 9.99941,26.865374 z" /><g
         id="g875"
         transform="translate(0.32494525)"><g
           id="g1416"
           transform="matrix(0.76373349,0,0,0.70817306,-1059.3423,251.57361)"
           style="stroke:none"><g
             id="g30770"
             transform="translate(-329.61473,-10.05555)"><g
               id="g31727"
               transform="translate(3.9677324,-4.1836759)"><g
                 id="g39434"
                 transform="translate(87.788756,-623.74644)"><circle
                   style="fill:#282828;fill-opacity:1;stroke:#282828;stroke-width:28.7104;stroke-linecap:round"
                   id="path1683"
                   cx="1857.3663"
                   cy="-403.2424"
                   transform="scale(1,-1)"
                   r="123.74007" /></g></g></g></g><g
           id="g12"
           clip-path="url(#clipPath16)"
           transform="matrix(0.24371985,0,0,0.24371985,-11.18263,-146.25406)"
           style="fill:#ebdbb2;fill-opacity:1"><g
             id="g18"
             transform="translate(986.2234,818.9683)"
             style="fill:#ebdbb2;fill-opacity:1"><path
               d="m 0,0 c -75.72,-35.88 -161.365,-25.672 -225.389,19.23 -72.324,-31.545 -141.013,-56.576 -197.909,-71.903 -0.128,-0.035 -0.25,-0.066 -0.377,-0.1 86.695,-99.281 231.864,-133.353 356.852,-74.126 C 26.211,-82.814 86.301,2.663 101.911,97.083 80.012,56.06 45.25,21.443 0,0"
               style="fill:#ebdbb2;fill-opacity:1;fill-rule:nonzero;stroke:none"
               id="path20" /></g><g
             id="g22"
             transform="translate(462.4304,829.2241)"
             style="fill:#ebdbb2;fill-opacity:1"><path
               d="M 0,0 C 6.707,8.363 19.316,21.578 41.14,39.939 44.93,28.666 49.403,17.491 54.623,6.478 54.652,6.413 54.686,6.351 54.716,6.287 26.173,0.289 9.383,-0.517 0,0 m 651.611,279 c -8.663,9.474 -23.361,10.127 -32.83,1.472 -25.998,-23.768 -66,-51.988 -114.677,-81.441 -11.948,12.294 -28.65,19.943 -47.147,19.943 -36.315,0 -65.753,-29.439 -65.753,-65.753 0,-5.395 0.664,-10.632 1.889,-15.649 -17.518,-8.931 -35.486,-17.776 -53.773,-26.441 -33.203,-15.734 -66.287,-30.337 -98.339,-43.485 -6.1,9.092 -11.617,18.736 -16.448,28.929 -53.137,112.139 -5.307,246.121 106.831,299.259 34.274,16.241 70.584,23.005 106.007,21.429 -74.756,29.139 -160.888,28.631 -239.117,-8.439 C 74.632,350.245 9.163,218.589 28.971,89.964 -54.849,23.866 -58.534,-2.795 -49.612,-21.628 c 7.913,-16.699 25.611,-24.994 54.989,-24.994 23.742,0 55.114,5.417 95.118,16.194 72.675,19.58 164.558,54.936 258.725,99.558 20.717,9.817 40.946,19.804 60.558,29.863 10.576,-7.265 23.378,-11.525 37.179,-11.525 36.314,0 65.752,29.439 65.752,65.753 0,0.883 -0.032,1.758 -0.065,2.633 53.819,32.245 98.061,63.408 127.496,90.315 9.472,8.661 10.131,23.359 1.471,32.831"
               style="fill:#ebdbb2;fill-opacity:1;fill-rule:nonzero;stroke:none"
               id="path24" /></g></g></g></g><g
       id="g956"
       transform="translate(46.384326,0.71141601)" /><g
       id="g944"
       transform="translate(96.725563,0.71141601)" /></g></svg>
