<?xml version="1.0" encoding="UTF-8"?>
<svg xmlns="http://www.w3.org/2000/svg" xmlns:xlink="http://www.w3.org/1999/xlink" width="96" height="96" viewBox="0 0 96 96" version="1.1">
<defs>
<filter id="alpha" filterUnits="objectBoundingBox" x="0%" y="0%" width="100%" height="100%">
  <feColorMatrix type="matrix" in="SourceGraphic" values="0 0 0 0 1 0 0 0 0 1 0 0 0 0 1 0 0 0 1 0"/>
</filter>
<mask id="mask0">
  <g filter="url(#alpha)">
<rect x="0" y="0" width="96" height="96" style="fill:rgb(0%,0%,0%);fill-opacity:0.2;stroke:none;"/>
  </g>
</mask>
<clipPath id="clip1">
  <rect x="0" y="0" width="96" height="96"/>
</clipPath>
<g id="surface5" clip-path="url(#clip1)">
<path style=" stroke:none;fill-rule:nonzero;fill:rgb(100%,100%,100%);fill-opacity:1;" d="M 74.699219 53.601562 C 63.425781 53.601562 54.289062 62.742188 54.289062 74.011719 C 54.292969 74.210938 54.300781 74.410156 54.3125 74.605469 C 54.542969 63.511719 63.601562 54.632812 74.699219 54.625 C 85.734375 54.628906 94.765625 63.410156 95.089844 74.441406 C 95.097656 74.296875 95.105469 74.15625 95.113281 74.011719 C 95.113281 62.742188 85.972656 53.601562 74.703125 53.601562 Z M 74.699219 53.601562 "/>
</g>
<mask id="mask1">
  <g filter="url(#alpha)">
<rect x="0" y="0" width="96" height="96" style="fill:rgb(0%,0%,0%);fill-opacity:0.2;stroke:none;"/>
  </g>
</mask>
<clipPath id="clip2">
  <rect x="0" y="0" width="96" height="96"/>
</clipPath>
<g id="surface8" clip-path="url(#clip2)">
<path style=" stroke:none;fill-rule:nonzero;fill:rgb(0%,0%,0%);fill-opacity:1;" d="M 95.085938 74.441406 C 94.855469 85.535156 85.796875 94.414062 74.699219 94.421875 C 63.664062 94.414062 54.632812 85.636719 54.3125 74.605469 C 54.300781 74.75 54.292969 74.890625 54.289062 75.035156 C 54.289062 86.304688 63.425781 95.445312 74.699219 95.445312 C 85.972656 95.445312 95.109375 86.304688 95.109375 75.035156 C 95.105469 74.835938 95.097656 74.636719 95.085938 74.441406 Z M 95.085938 74.441406 "/>
</g>
<mask id="mask2">
  <g filter="url(#alpha)">
<rect x="0" y="0" width="96" height="96" style="fill:rgb(0%,0%,0%);fill-opacity:0.2;stroke:none;"/>
  </g>
</mask>
<clipPath id="clip3">
  <rect x="0" y="0" width="96" height="96"/>
</clipPath>
<g id="surface11" clip-path="url(#clip3)">
<path style=" stroke:none;fill-rule:nonzero;fill:rgb(0%,0%,0%);fill-opacity:1;" d="M 74.699219 61.765625 C 71.878906 61.765625 69.597656 64.050781 69.597656 66.871094 C 69.597656 69.6875 71.878906 71.972656 74.699219 71.972656 C 77.519531 71.972656 79.800781 69.6875 79.800781 66.871094 C 79.800781 64.050781 77.519531 61.765625 74.699219 61.765625 Z M 74.699219 75.035156 C 64.496094 75.042969 64.496094 81.566406 64.496094 81.566406 L 64.496094 84.21875 C 64.496094 84.21875 66.378906 88.300781 74.699219 88.300781 C 83.019531 88.300781 84.90625 84.21875 84.90625 84.21875 L 84.90625 81.566406 C 84.90625 81.566406 84.90625 75.03125 74.703125 75.035156 Z M 74.699219 75.035156 "/>
</g>
</defs>
<g id="surface1">
<path style="fill-rule:nonzero;fill:rgb(80.392158%,61.176473%,42.745098%);fill-opacity:1;stroke-width:0.860629;stroke-linecap:butt;stroke-linejoin:miter;stroke:rgb(80.392158%,61.176473%,42.745098%);stroke-opacity:1;stroke-miterlimit:4;" d="M 18.664143 9.017882 L 109.399695 9.017882 C 115.176432 9.017882 119.85625 13.6977 119.85625 19.468925 L 119.85625 105.745145 C 119.85625 111.51637 115.176432 116.196188 109.399695 116.196188 L 18.664143 116.196188 C 12.887406 116.196188 8.207588 111.51637 8.207588 105.745145 L 8.207588 19.468925 C 8.207588 13.6977 12.887406 9.017882 18.664143 9.017882 Z M 18.664143 9.017882 " transform="matrix(0.708661,0,0,0.708661,0.00000540666,0)"/>
<path style=" stroke:none;fill-rule:nonzero;fill:rgb(5.882353%,33.725491%,85.09804%);fill-opacity:1;" d="M 95.109375 74.011719 C 95.109375 85.285156 85.972656 94.421875 74.699219 94.421875 C 63.425781 94.421875 54.289062 85.285156 54.289062 74.011719 C 54.289062 62.742188 63.425781 53.601562 74.699219 53.601562 C 85.972656 53.601562 95.109375 62.742188 95.109375 74.011719 Z M 95.109375 74.011719 "/>
<use xlink:href="#surface5" mask="url(#mask0)"/>
<use xlink:href="#surface8" mask="url(#mask1)"/>
<use xlink:href="#surface11" mask="url(#mask2)"/>
<path style=" stroke:none;fill-rule:nonzero;fill:rgb(100%,100%,100%);fill-opacity:1;" d="M 74.699219 60.746094 C 71.878906 60.746094 69.597656 63.03125 69.597656 65.847656 C 69.597656 68.667969 71.878906 70.953125 74.699219 70.953125 C 77.519531 70.953125 79.800781 68.667969 79.800781 65.847656 C 79.800781 63.03125 77.519531 60.746094 74.699219 60.746094 Z M 74.699219 74.011719 C 64.496094 74.023438 64.496094 80.542969 64.496094 80.542969 L 64.496094 83.199219 C 64.496094 83.199219 66.378906 87.28125 74.699219 87.28125 C 83.019531 87.28125 84.90625 83.199219 84.90625 83.199219 L 84.90625 80.542969 C 84.90625 80.542969 84.90625 74.007812 74.703125 74.011719 Z M 74.699219 74.011719 "/>
<path style="fill-rule:nonzero;fill:rgb(89.019608%,76.862746%,66.274512%);fill-opacity:1;stroke-width:0.528713;stroke-linecap:butt;stroke-linejoin:miter;stroke:rgb(89.019608%,76.862746%,66.274512%);stroke-opacity:1;stroke-miterlimit:4;" d="M 52.856029 8.808421 L 73.256507 8.808421 L 73.256507 19.011416 L 52.856029 19.011416 Z M 52.856029 8.808421 " transform="matrix(0.708661,0,0,0.708661,0.00000540666,0)"/>
<path style="fill-rule:nonzero;fill:rgb(89.019608%,76.862746%,66.274512%);fill-opacity:1;stroke-width:0.528713;stroke-linecap:butt;stroke-linejoin:miter;stroke:rgb(89.019608%,76.862746%,66.274512%);stroke-opacity:1;stroke-miterlimit:4;" d="M 51.654379 106.301873 L 72.054858 106.301873 L 72.054858 116.51038 L 51.654379 116.51038 Z M 51.654379 106.301873 " transform="matrix(0.708661,0,0,0.708661,0.00000540666,0)"/>
<path style="fill:none;stroke-width:5.66387;stroke-linecap:butt;stroke-linejoin:miter;stroke:rgb(12.156863%,9.019608%,5.882353%);stroke-opacity:1;stroke-miterlimit:4;" d="M 86.408505 62.320403 C 86.408505 75.4724 75.748 86.138417 62.596003 86.138417 C 49.438494 86.138417 38.777989 75.4724 38.777989 62.320403 C 38.777989 49.168406 49.438494 38.502389 62.596003 38.502389 C 75.748 38.502389 86.408505 49.168406 86.408505 62.320403 Z M 86.408505 62.320403 " transform="matrix(0.708661,0,0,0.708661,0.00000540666,0)"/>
<path style=" stroke:none;fill-rule:nonzero;fill:rgb(12.156863%,9.019608%,5.882353%);fill-opacity:1;" d="M 40.09375 34.070312 L 48.535156 34.070312 L 48.535156 42.71875 L 40.09375 42.71875 Z M 40.09375 34.070312 "/>
<path style="fill-rule:nonzero;fill:rgb(12.156863%,9.019608%,5.882353%);fill-opacity:1;stroke-width:0.289017;stroke-linecap:butt;stroke-linejoin:miter;stroke:rgb(12.156863%,9.019608%,5.882353%);stroke-opacity:1;stroke-miterlimit:4;" d="M 46.969049 60.258858 L 78.702514 60.258858 L 62.325908 77.462288 Z M 46.969049 60.258858 " transform="matrix(0.708661,0,0,0.708661,0.00000540666,0)"/>
</g>
</svg>
