<?xml version="1.0" encoding="UTF-8"?>
<svg xmlns="http://www.w3.org/2000/svg" xmlns:xlink="http://www.w3.org/1999/xlink" width="256" height="256" viewBox="0 0 256 256" version="1.1">
<defs>
<filter id="alpha" filterUnits="objectBoundingBox" x="0%" y="0%" width="100%" height="100%">
  <feColorMatrix type="matrix" in="SourceGraphic" values="0 0 0 0 1 0 0 0 0 1 0 0 0 0 1 0 0 0 1 0"/>
</filter>
<mask id="mask0">
  <g filter="url(#alpha)">
<rect x="0" y="0" width="256" height="256" style="fill:rgb(0%,0%,0%);fill-opacity:0.2;stroke:none;"/>
  </g>
</mask>
<clipPath id="clip1">
  <rect x="0" y="0" width="256" height="256"/>
</clipPath>
<g id="surface5" clip-path="url(#clip1)">
<path style=" stroke:none;fill-rule:nonzero;fill:rgb(100%,100%,100%);fill-opacity:1;" d="M 199.199219 142.941406 C 169.140625 142.941406 144.773438 167.308594 144.773438 197.367188 C 144.785156 197.898438 144.804688 198.425781 144.832031 198.953125 C 145.453125 169.363281 169.601562 145.691406 199.199219 145.664062 C 228.628906 145.683594 252.714844 169.089844 253.570312 198.507812 C 253.59375 198.128906 253.613281 197.75 253.632812 197.367188 C 253.632812 167.308594 229.261719 142.941406 199.203125 142.941406 Z M 199.199219 142.941406 "/>
</g>
<mask id="mask1">
  <g filter="url(#alpha)">
<rect x="0" y="0" width="256" height="256" style="fill:rgb(0%,0%,0%);fill-opacity:0.2;stroke:none;"/>
  </g>
</mask>
<clipPath id="clip2">
  <rect x="0" y="0" width="256" height="256"/>
</clipPath>
<g id="surface8" clip-path="url(#clip2)">
<path style=" stroke:none;fill-rule:nonzero;fill:rgb(0%,0%,0%);fill-opacity:1;" d="M 253.566406 198.507812 C 252.949219 228.097656 228.796875 251.769531 199.199219 251.796875 C 169.769531 251.777344 145.6875 228.367188 144.832031 198.953125 C 144.808594 199.332031 144.785156 199.710938 144.769531 200.089844 C 144.769531 230.148438 169.136719 254.515625 199.195312 254.515625 C 229.253906 254.515625 253.621094 230.148438 253.621094 200.089844 C 253.609375 199.5625 253.589844 199.035156 253.5625 198.507812 Z M 253.566406 198.507812 "/>
</g>
<mask id="mask2">
  <g filter="url(#alpha)">
<rect x="0" y="0" width="256" height="256" style="fill:rgb(0%,0%,0%);fill-opacity:0.2;stroke:none;"/>
  </g>
</mask>
<clipPath id="clip3">
  <rect x="0" y="0" width="256" height="256"/>
</clipPath>
<g id="surface11" clip-path="url(#clip3)">
<path style=" stroke:none;fill-rule:nonzero;fill:rgb(0%,0%,0%);fill-opacity:1;" d="M 199.199219 164.710938 C 191.683594 164.710938 185.589844 170.804688 185.589844 178.320312 C 185.589844 185.832031 191.683594 191.925781 199.199219 191.925781 C 206.714844 191.925781 212.804688 185.832031 212.804688 178.320312 C 212.804688 170.804688 206.714844 164.710938 199.199219 164.710938 Z M 199.199219 200.089844 C 171.988281 200.113281 171.984375 217.507812 171.984375 217.507812 L 171.984375 224.582031 C 171.984375 224.582031 177.007812 235.46875 199.199219 235.46875 C 221.386719 235.46875 226.410156 224.582031 226.410156 224.582031 L 226.410156 217.507812 C 226.410156 217.507812 226.410156 200.078125 199.203125 200.089844 Z M 199.199219 200.089844 "/>
</g>
</defs>
<g id="surface1">
<path style="fill-rule:nonzero;fill:rgb(80.392158%,61.176473%,42.745098%);fill-opacity:1;stroke-width:0.860629;stroke-linecap:butt;stroke-linejoin:miter;stroke:rgb(80.392158%,61.176473%,42.745098%);stroke-opacity:1;stroke-miterlimit:4;" d="M 18.661387 9.016504 L 109.40314 9.016504 C 115.176432 9.016504 119.858317 13.696322 119.858317 19.471681 L 119.858317 105.742389 C 119.858317 111.517748 115.176432 116.197566 109.40314 116.197566 L 18.661387 116.197566 C 12.888095 116.197566 8.20621 111.517748 8.20621 105.742389 L 8.20621 19.471681 C 8.20621 13.696322 12.888095 9.016504 18.661387 9.016504 Z M 18.661387 9.016504 " transform="matrix(1.889764,0,0,1.889764,0.0000144178,0)"/>
<path style=" stroke:none;fill-rule:nonzero;fill:rgb(5.882353%,33.725491%,85.09804%);fill-opacity:1;" d="M 253.625 197.367188 C 253.625 227.429688 229.257812 251.796875 199.199219 251.796875 C 169.140625 251.796875 144.773438 227.429688 144.773438 197.367188 C 144.773438 167.308594 169.140625 142.941406 199.199219 142.941406 C 229.257812 142.941406 253.625 167.308594 253.625 197.367188 Z M 253.625 197.367188 "/>
<use xlink:href="#surface5" mask="url(#mask0)"/>
<use xlink:href="#surface8" mask="url(#mask1)"/>
<use xlink:href="#surface11" mask="url(#mask2)"/>
<path style=" stroke:none;fill-rule:nonzero;fill:rgb(100%,100%,100%);fill-opacity:1;" d="M 199.199219 161.992188 C 191.683594 161.992188 185.589844 168.085938 185.589844 175.597656 C 185.589844 183.113281 191.683594 189.203125 199.199219 189.203125 C 206.714844 189.203125 212.804688 183.113281 212.804688 175.597656 C 212.804688 168.085938 206.714844 161.992188 199.199219 161.992188 Z M 199.199219 197.367188 C 171.988281 197.390625 171.984375 214.785156 171.984375 214.785156 L 171.984375 221.859375 C 171.984375 221.859375 177.007812 232.746094 199.199219 232.746094 C 221.386719 232.746094 226.410156 221.859375 226.410156 221.859375 L 226.410156 214.785156 C 226.410156 214.785156 226.410156 197.359375 199.203125 197.367188 Z M 199.199219 197.367188 "/>
<path style="fill-rule:nonzero;fill:rgb(89.019608%,76.862746%,66.274512%);fill-opacity:1;stroke-width:0.528713;stroke-linecap:butt;stroke-linejoin:miter;stroke:rgb(89.019608%,76.862746%,66.274512%);stroke-opacity:1;stroke-miterlimit:4;" d="M 52.856718 8.805665 L 73.258574 8.805665 L 73.258574 19.012794 L 52.856718 19.012794 Z M 52.856718 8.805665 " transform="matrix(1.889764,0,0,1.889764,0.0000144178,0)"/>
<path style="fill-rule:nonzero;fill:rgb(89.019608%,76.862746%,66.274512%);fill-opacity:1;stroke-width:0.528713;stroke-linecap:butt;stroke-linejoin:miter;stroke:rgb(89.019608%,76.862746%,66.274512%);stroke-opacity:1;stroke-miterlimit:4;" d="M 51.651623 106.302562 L 72.055547 106.302562 L 72.055547 116.507624 L 51.651623 116.507624 Z M 51.651623 106.302562 " transform="matrix(1.889764,0,0,1.889764,0.0000144178,0)"/>
<path style="fill:none;stroke-width:5.66387;stroke-linecap:butt;stroke-linejoin:miter;stroke:rgb(12.156863%,9.019608%,5.882353%);stroke-opacity:1;stroke-miterlimit:4;" d="M 86.411261 62.319714 C 86.411261 75.474467 75.747311 86.13635 62.592558 86.13635 C 49.439872 86.13635 38.775922 75.474467 38.775922 62.319714 C 38.775922 49.164961 49.439872 38.503078 62.592558 38.503078 C 75.747311 38.503078 86.411261 49.164961 86.411261 62.319714 Z M 86.411261 62.319714 " transform="matrix(1.889764,0,0,1.889764,0.0000144178,0)"/>
<path style=" stroke:none;fill-rule:nonzero;fill:rgb(12.156863%,9.019608%,5.882353%);fill-opacity:1;" d="M 106.914062 90.847656 L 129.429688 90.847656 L 129.429688 113.914062 L 106.914062 113.914062 Z M 106.914062 90.847656 "/>
<path style="fill-rule:nonzero;fill:rgb(12.156863%,9.019608%,5.882353%);fill-opacity:1;stroke-width:0.289017;stroke-linecap:butt;stroke-linejoin:miter;stroke:rgb(12.156863%,9.019608%,5.882353%);stroke-opacity:1;stroke-miterlimit:4;" d="M 46.971805 60.256791 L 78.701136 60.256791 L 62.323841 77.462977 Z M 46.971805 60.256791 " transform="matrix(1.889764,0,0,1.889764,0.0000144178,0)"/>
</g>
</svg>
