<?xml version="1.0" encoding="UTF-8"?>
<svg xmlns="http://www.w3.org/2000/svg" xmlns:xlink="http://www.w3.org/1999/xlink" width="32" height="32" viewBox="0 0 32 32" version="1.1">
<defs>
<filter id="alpha" filterUnits="objectBoundingBox" x="0%" y="0%" width="100%" height="100%">
  <feColorMatrix type="matrix" in="SourceGraphic" values="0 0 0 0 1 0 0 0 0 1 0 0 0 0 1 0 0 0 1 0"/>
</filter>
<mask id="mask0">
  <g filter="url(#alpha)">
<rect x="0" y="0" width="32" height="32" style="fill:rgb(0%,0%,0%);fill-opacity:0.2;stroke:none;"/>
  </g>
</mask>
<clipPath id="clip1">
  <rect x="0" y="0" width="32" height="32"/>
</clipPath>
<g id="surface5" clip-path="url(#clip1)">
<path style=" stroke:none;fill-rule:nonzero;fill:rgb(100%,100%,100%);fill-opacity:1;" d="M 24.898438 17.867188 C 21.140625 17.867188 18.097656 20.914062 18.097656 24.671875 C 18.097656 24.738281 18.101562 24.804688 18.105469 24.867188 C 18.179688 21.171875 21.199219 18.210938 24.898438 18.207031 C 28.578125 18.210938 31.589844 21.136719 31.695312 24.8125 C 31.699219 24.765625 31.703125 24.71875 31.703125 24.671875 C 31.703125 20.914062 28.65625 17.867188 24.902344 17.867188 Z M 24.898438 17.867188 "/>
</g>
<mask id="mask1">
  <g filter="url(#alpha)">
<rect x="0" y="0" width="32" height="32" style="fill:rgb(0%,0%,0%);fill-opacity:0.2;stroke:none;"/>
  </g>
</mask>
<clipPath id="clip2">
  <rect x="0" y="0" width="32" height="32"/>
</clipPath>
<g id="surface8" clip-path="url(#clip2)">
<path style=" stroke:none;fill-rule:nonzero;fill:rgb(0%,0%,0%);fill-opacity:1;" d="M 31.695312 24.8125 C 31.617188 28.511719 28.597656 31.472656 24.898438 31.472656 C 21.222656 31.472656 18.210938 28.546875 18.105469 24.867188 C 18.101562 24.917969 18.097656 24.964844 18.097656 25.011719 C 18.097656 28.769531 21.140625 31.816406 24.898438 31.816406 C 28.65625 31.816406 31.703125 28.769531 31.703125 25.011719 C 31.703125 24.945312 31.699219 24.878906 31.695312 24.8125 Z M 31.695312 24.8125 "/>
</g>
<mask id="mask2">
  <g filter="url(#alpha)">
<rect x="0" y="0" width="32" height="32" style="fill:rgb(0%,0%,0%);fill-opacity:0.2;stroke:none;"/>
  </g>
</mask>
<clipPath id="clip3">
  <rect x="0" y="0" width="32" height="32"/>
</clipPath>
<g id="surface11" clip-path="url(#clip3)">
<path style=" stroke:none;fill-rule:nonzero;fill:rgb(0%,0%,0%);fill-opacity:1;" d="M 24.898438 20.589844 C 23.960938 20.589844 23.199219 21.351562 23.199219 22.289062 C 23.199219 23.230469 23.960938 23.992188 24.898438 23.992188 C 25.839844 23.992188 26.601562 23.230469 26.601562 22.289062 C 26.601562 21.351562 25.839844 20.589844 24.898438 20.589844 Z M 24.898438 25.011719 C 21.5 25.015625 21.5 27.1875 21.5 27.1875 L 21.5 28.074219 C 21.5 28.074219 22.125 29.433594 24.898438 29.433594 C 27.671875 29.433594 28.300781 28.074219 28.300781 28.074219 L 28.300781 27.1875 C 28.300781 27.1875 28.300781 25.011719 24.902344 25.011719 Z M 24.898438 25.011719 "/>
</g>
</defs>
<g id="surface1">
<path style="fill-rule:nonzero;fill:rgb(80.392158%,61.176473%,42.745098%);fill-opacity:1;stroke-width:0.860629;stroke-linecap:butt;stroke-linejoin:miter;stroke:rgb(80.392158%,61.176473%,42.745098%);stroke-opacity:1;stroke-miterlimit:4;" d="M 18.669655 9.01237 L 109.405207 9.01237 C 115.176432 9.01237 119.85625 13.692188 119.85625 19.463413 L 119.85625 105.750657 C 119.85625 111.521882 115.176432 116.2017 109.405207 116.2017 L 18.669655 116.2017 C 12.881894 116.2017 8.202076 111.521882 8.202076 105.750657 L 8.202076 19.463413 C 8.202076 13.692188 12.881894 9.01237 18.669655 9.01237 Z M 18.669655 9.01237 " transform="matrix(0.23622,0,0,0.23622,0.00000180222,0)"/>
<path style=" stroke:none;fill-rule:nonzero;fill:rgb(5.882353%,33.725491%,85.09804%);fill-opacity:1;" d="M 31.703125 24.671875 C 31.703125 28.429688 28.65625 31.472656 24.898438 31.472656 C 21.140625 31.472656 18.097656 28.429688 18.097656 24.671875 C 18.097656 20.914062 21.140625 17.867188 24.898438 17.867188 C 28.65625 17.867188 31.703125 20.914062 31.703125 24.671875 Z M 31.703125 24.671875 "/>
<use xlink:href="#surface5" mask="url(#mask0)"/>
<use xlink:href="#surface8" mask="url(#mask1)"/>
<use xlink:href="#surface11" mask="url(#mask2)"/>
<path style=" stroke:none;fill-rule:nonzero;fill:rgb(100%,100%,100%);fill-opacity:1;" d="M 24.898438 20.25 C 23.960938 20.25 23.199219 21.011719 23.199219 21.949219 C 23.199219 22.890625 23.960938 23.652344 24.898438 23.652344 C 25.839844 23.652344 26.601562 22.890625 26.601562 21.949219 C 26.601562 21.011719 25.839844 20.25 24.898438 20.25 Z M 24.898438 24.671875 C 21.5 24.675781 21.5 26.847656 21.5 26.847656 L 21.5 27.734375 C 21.5 27.734375 22.125 29.09375 24.898438 29.09375 C 27.671875 29.09375 28.300781 27.734375 28.300781 27.734375 L 28.300781 26.847656 C 28.300781 26.847656 28.300781 24.667969 24.902344 24.671875 Z M 24.898438 24.671875 "/>
<path style="fill-rule:nonzero;fill:rgb(89.019608%,76.862746%,66.274512%);fill-opacity:1;stroke-width:0.528713;stroke-linecap:butt;stroke-linejoin:miter;stroke:rgb(89.019608%,76.862746%,66.274512%);stroke-opacity:1;stroke-miterlimit:4;" d="M 52.850516 8.813933 L 73.256507 8.813933 L 73.256507 19.016928 L 52.850516 19.016928 Z M 52.850516 8.813933 " transform="matrix(0.23622,0,0,0.23622,0.00000180222,0)"/>
<path style="fill-rule:nonzero;fill:rgb(89.019608%,76.862746%,66.274512%);fill-opacity:1;stroke-width:0.528713;stroke-linecap:butt;stroke-linejoin:miter;stroke:rgb(89.019608%,76.862746%,66.274512%);stroke-opacity:1;stroke-miterlimit:4;" d="M 51.659891 106.296361 L 72.049346 106.296361 L 72.049346 116.515892 L 51.659891 116.515892 Z M 51.659891 106.296361 " transform="matrix(0.23622,0,0,0.23622,0.00000180222,0)"/>
<path style="fill:none;stroke-width:5.66387;stroke-linecap:butt;stroke-linejoin:miter;stroke:rgb(12.156863%,9.019608%,5.882353%);stroke-opacity:1;stroke-miterlimit:4;" d="M 86.402992 62.325915 C 86.402992 75.4724 75.753513 86.138417 62.590491 86.138417 C 49.444006 86.138417 38.777989 75.4724 38.777989 62.325915 C 38.777989 49.162894 49.444006 38.496877 62.590491 38.496877 C 75.753513 38.496877 86.402992 49.162894 86.402992 62.325915 Z M 86.402992 62.325915 " transform="matrix(0.23622,0,0,0.23622,0.00000180222,0)"/>
<path style=" stroke:none;fill-rule:nonzero;fill:rgb(12.156863%,9.019608%,5.882353%);fill-opacity:1;" d="M 13.363281 11.355469 L 16.179688 11.355469 L 16.179688 14.238281 L 13.363281 14.238281 Z M 13.363281 11.355469 "/>
<path style="fill-rule:nonzero;fill:rgb(12.156863%,9.019608%,5.882353%);fill-opacity:1;stroke-width:0.289017;stroke-linecap:butt;stroke-linejoin:miter;stroke:rgb(12.156863%,9.019608%,5.882353%);stroke-opacity:1;stroke-miterlimit:4;" d="M 46.963537 60.258858 L 78.697002 60.258858 L 62.325908 77.456775 Z M 46.963537 60.258858 " transform="matrix(0.23622,0,0,0.23622,0.00000180222,0)"/>
</g>
</svg>
